<?xml version="1.0" standalone="no"?>
<!DOCTYPE svg PUBLIC "-//W3C//DTD SVG 20010904//EN"
 "http://www.w3.org/TR/2001/REC-SVG-20010904/DTD/svg10.dtd">
<svg version="1.0" xmlns="http://www.w3.org/2000/svg"
 width="1300.000000pt" height="1300.000000pt" viewBox="0 0 1300.000000 1300.000000"
 preserveAspectRatio="xMidYMid meet">

<g transform="translate(0.000000,1300.000000) scale(0.100000,-0.100000)"
fill="#000000" stroke="none">
<path d="M6636 11543 c-15 -15 -37 -78 -77 -217 -68 -237 -138 -339 -256 -371
-146 -40 -195 -72 -233 -150 -36 -74 -42 -159 -25 -334 13 -126 13 -157 3
-160 -7 -2 -30 -21 -50 -41 -36 -36 -38 -41 -38 -102 0 -35 4 -99 9 -143 6
-44 12 -131 16 -194 3 -62 7 -119 8 -125 2 -14 -1181 -10 -1427 5 -254 15
-423 47 -523 100 -30 16 -68 29 -84 29 -34 0 -46 17 -84 112 -22 55 -32 68
-57 77 -38 13 -934 15 -942 2 -3 -4 -10 -41 -17 -82 -14 -95 -19 -102 -73
-123 -29 -11 -48 -25 -52 -39 -4 -12 -43 -67 -87 -122 -269 -335 -451 -724
-591 -1265 -45 -175 -131 -566 -161 -735 -9 -49 -19 -97 -22 -105 -3 -8 -6
-18 -5 -22 1 -3 -17 -105 -39 -225 -22 -120 -42 -234 -45 -255 -4 -37 -69
-419 -80 -471 -4 -17 -15 -32 -30 -37 -29 -11 -32 -30 -4 -30 11 0 20 -3 20
-7 0 -24 -223 -1242 -240 -1309 -72 -291 -35 -591 106 -865 183 -355 527 -606
924 -675 120 -20 362 -15 460 11 90 24 213 84 291 143 304 231 551 778 794
1766 l56 226 46 43 c25 23 66 55 90 70 l46 29 96 -45 c207 -97 362 -146 529
-168 244 -30 508 50 685 210 l38 34 872 -6 872 -6 20 -28 c11 -15 45 -53 75
-84 97 -97 151 -106 535 -90 344 14 469 38 600 119 l50 30 91 -44 91 -43 53
-113 c82 -176 167 -401 308 -818 194 -572 256 -712 375 -846 97 -108 262 -201
503 -283 102 -35 133 -41 202 -41 61 0 91 5 119 20 21 10 93 31 159 45 191 40
272 73 412 167 180 122 293 287 365 539 97 335 101 826 11 1358 -29 176 -112
552 -125 567 -25 30 -102 430 -193 1009 -95 601 -143 849 -217 1118 -123 452
-291 811 -518 1110 -120 156 -112 149 -171 151 -60 2 -63 5 -91 101 -11 39
-23 78 -27 87 -6 16 -39 18 -377 23 -389 5 -482 0 -618 -37 -91 -24 -102 -36
-112 -124 -6 -59 -8 -62 -37 -68 -18 -3 -46 -23 -68 -47 l-38 -42 -218 -8
c-121 -5 -593 -12 -1051 -15 l-832 -7 -5 24 c-3 13 -19 150 -35 303 -22 196
-35 286 -47 303 -23 35 -74 53 -153 53 l-69 0 -7 133 c-5 87 -3 146 4 173 14
54 63 98 170 155 142 75 225 187 270 364 23 88 50 282 43 303 -3 7 -16 12 -31
10 -24 -3 -27 -8 -35 -70 -8 -61 -11 -67 -35 -71 -26 -4 -26 -4 -3 -12 12 -4
22 -12 22 -17 0 -5 -5 -6 -10 -3 -6 3 -13 -1 -17 -10 -3 -10 0 -21 8 -25 7 -5
10 -12 6 -16 -4 -4 -12 -3 -19 4 -17 17 -52 -26 -37 -45 7 -7 9 -17 5 -20 -4
-4 -11 -1 -16 7 -5 8 -12 12 -15 8 -4 -3 1 -17 10 -31 15 -23 14 -25 -2 -31
-15 -6 -13 -9 11 -26 l29 -18 -36 1 c-47 1 -54 -7 -28 -34 28 -30 26 -40 -5
-37 -15 2 -29 -3 -31 -9 -3 -8 4 -13 16 -13 12 0 21 -6 21 -13 0 -25 -96 -106
-195 -165 -67 -40 -109 -72 -128 -99 -40 -56 -52 -141 -41 -281 10 -126 16
-116 -73 -127 l-53 -7 0 30 c0 16 -3 44 -7 62 -5 28 -4 32 10 27 11 -4 17 -1
17 8 0 25 1 30 13 43 6 7 19 11 29 9 22 -6 23 6 3 23 -9 7 -14 19 -11 26 3 7
0 16 -6 20 -7 4 -6 9 3 15 11 7 12 12 2 28 -10 15 -10 20 0 24 8 3 6 11 -7 26
-16 18 -17 21 -3 21 9 0 19 9 22 20 3 11 15 25 26 31 16 8 18 13 8 25 -9 11
-7 14 10 14 24 0 28 18 6 26 -25 10 -17 22 13 16 18 -3 24 -1 17 6 -5 6 -21
12 -35 14 -19 3 -11 8 35 22 110 32 143 47 188 86 61 54 107 148 162 330 26
85 54 172 62 193 12 30 13 40 3 52 -13 16 -32 19 -44 8z m63 -319 c3 -16 1
-17 -13 -5 -19 16 -21 34 -3 29 6 -3 14 -13 16 -24z m-9 -56 c0 -6 -7 -5 -15
2 -8 7 -15 17 -15 22 0 6 7 5 15 -2 8 -7 15 -17 15 -22z m-485 -349 c12 -19
-5 -23 -22 -6 -16 16 -16 17 -1 17 9 0 20 -5 23 -11z m-55 -60 c0 -5 -4 -9
-10 -9 -5 0 -10 7 -10 16 0 8 5 12 10 9 6 -3 10 -10 10 -16z m40 11 c0 -5 -4
-10 -9 -10 -6 0 -13 5 -16 10 -3 6 1 10 9 10 9 0 16 -4 16 -10z m-10 -34 c0
-3 -4 -8 -10 -11 -5 -3 -10 -1 -10 4 0 6 5 11 10 11 6 0 10 -2 10 -4z m-40
-16 c0 -5 -2 -10 -4 -10 -3 0 -8 5 -11 10 -3 6 -1 10 4 10 6 0 11 -4 11 -10z
m1 -47 c13 -16 12 -17 -3 -4 -10 7 -18 15 -18 17 0 8 8 3 21 -13z m-26 -13 c3
-5 1 -10 -4 -10 -6 0 -11 5 -11 10 0 6 2 10 4 10 3 0 8 -4 11 -10z m34 -29 c8
-5 9 -11 3 -15 -5 -3 -15 1 -22 9 -14 16 -3 20 19 6z m-34 -21 c3 -5 1 -10 -4
-10 -6 0 -11 5 -11 10 0 6 2 10 4 10 3 0 8 -4 11 -10z m35 -30 c0 -5 -2 -10
-4 -10 -3 0 -8 5 -11 10 -3 6 -1 10 4 10 6 0 11 -4 11 -10z m-30 -21 c0 -5 -4
-9 -10 -9 -5 0 -10 7 -10 16 0 8 5 12 10 9 6 -3 10 -10 10 -16z m30 -19 c0 -5
-5 -10 -11 -10 -5 0 -7 5 -4 10 3 6 8 10 11 10 2 0 4 -4 4 -10z m320 -280 c35
-35 23 -53 -16 -25 -28 19 -39 7 -13 -14 27 -21 16 -54 -15 -46 -17 5 -14 0
11 -22 27 -24 30 -31 20 -45 -10 -12 -17 -14 -30 -6 -10 5 -23 8 -29 6 -10 -4
15 -22 84 -64 15 -9 16 -13 4 -29 -7 -10 -18 -15 -24 -11 -22 13 -12 -11 10
-26 25 -17 16 -42 -11 -33 -15 4 -18 0 -17 -25 1 -30 10 -38 21 -20 3 5 12 7
21 3 13 -5 13 -8 -2 -24 -16 -18 -18 -18 -56 2 -22 11 -42 18 -45 16 -4 -5 83
-67 95 -67 4 0 14 -4 22 -10 12 -7 12 -12 -5 -29 -23 -26 -12 -40 13 -18 24
22 32 13 32 -40 l0 -43 -169 0 -168 0 5 26 c6 35 -10 44 -80 44 -44 0 -58 4
-58 15 0 11 17 15 73 17 l72 3 0 30 0 30 -72 -1 -72 -2 -6 30 c-4 16 -5 31 -3
33 1 2 64 8 138 15 74 6 141 13 148 15 13 5 17 51 4 58 -4 3 -71 0 -150 -7
-134 -11 -142 -11 -142 6 0 14 8 18 38 18 46 0 76 19 70 46 -3 16 -13 20 -61
22 l-57 3 0 47 c0 26 7 57 15 69 27 39 156 70 293 72 79 1 95 -2 112 -19z m18
-105 c-2 -10 -7 -12 -17 -5 -13 7 -13 11 -1 25 15 18 24 8 18 -20z m12 -54 c0
-13 -26 -32 -33 -24 -8 7 11 33 24 33 5 0 9 -4 9 -9z m10 -107 c0 -8 -5 -12
-10 -9 -6 4 -8 11 -5 16 9 14 15 11 15 -7z m-3413 -54 c-3 -11 -1 -20 4 -20 5
0 19 -10 30 -21 l22 -22 13 24 13 24 1 -29 c0 -24 2 -26 15 -16 8 6 19 9 24 6
5 -4 13 -2 16 4 5 8 11 8 20 0 17 -14 35 -5 35 18 0 13 2 14 9 4 13 -21 89
-24 101 -4 8 14 9 13 10 -7 0 -19 3 -22 11 -14 9 9 17 9 32 0 15 -9 21 -9 24
0 3 10 10 10 24 2 11 -5 24 -7 29 -4 6 3 10 1 10 -4 0 -24 19 -9 22 17 4 25 5
25 13 7 12 -27 22 -33 54 -29 52 6 72 15 60 30 -15 18 -1 57 18 50 8 -3 30 -6
48 -6 30 0 35 -4 43 -32 6 -18 13 -41 17 -50 7 -16 -20 -17 -437 -11 -243 3
-444 7 -446 8 -1 1 1 23 4 48 l7 47 80 0 c74 0 79 -1 74 -20z m177 11 c4 -5 2
-19 -2 -31 -7 -19 -10 -20 -20 -7 -7 8 -10 22 -6 31 7 18 20 21 28 7z m353
-13 c-3 -8 -6 -5 -6 6 -1 11 2 17 5 13 3 -3 4 -12 1 -19z m-476 -21 c-8 -8
-11 -7 -11 4 0 20 13 34 18 19 3 -7 -1 -17 -7 -23z m239 24 c0 -6 -4 -13 -10
-16 -5 -3 -10 1 -10 9 0 9 5 16 10 16 6 0 10 -4 10 -9z m118 -27 c-10 -10 -28
6 -28 24 0 15 1 15 17 -1 9 -9 14 -19 11 -23z m38 9 c-10 -10 -19 5 -10 18 6
11 8 11 12 0 2 -7 1 -15 -2 -18z m44 17 c0 -5 -2 -10 -4 -10 -3 0 -8 5 -11 10
-3 6 -1 10 4 10 6 0 11 -4 11 -10z m2930 -4 c0 -8 -4 -17 -9 -21 -12 -7 -24
12 -16 25 9 15 25 12 25 -4z m2760 0 c0 -8 -4 -18 -10 -21 -5 -3 -10 3 -10 14
0 12 5 21 10 21 6 0 10 -6 10 -14z m88 -3 c-2 -10 -10 -18 -18 -18 -8 0 -16 8
-18 18 -2 12 3 17 18 17 15 0 20 -5 18 -17z m75 -9 c-4 -10 -9 -12 -15 -6 -12
12 -1 35 12 27 5 -3 6 -13 3 -21z m-6103 6 c0 -5 -2 -10 -4 -10 -3 0 -8 5 -11
10 -3 6 -1 10 4 10 6 0 11 -4 11 -10z m114 -5 c3 -8 1 -15 -4 -15 -6 0 -10 7
-10 15 0 8 2 15 4 15 2 0 6 -7 10 -15z m5726 11 c0 -11 -19 -15 -25 -6 -3 5 1
10 9 10 9 0 16 -2 16 -4z m21 -23 c-8 -15 -10 -15 -11 -2 0 17 10 32 18 25 2
-3 -1 -13 -7 -23z m337 10 c-4 -22 -22 -20 -26 1 -2 10 3 16 13 16 10 0 15 -7
13 -17z m63 -16 c-8 -8 -11 -7 -11 4 0 9 3 19 7 23 4 4 9 2 11 -4 3 -7 -1 -17
-7 -23z m89 7 c0 -14 -4 -23 -9 -20 -5 3 -7 15 -4 26 7 28 13 25 13 -6z m240
-30 l18 -51 -197 -6 c-108 -4 -252 -14 -321 -22 -171 -21 -465 -31 -474 -17
-4 6 -4 34 0 61 l6 50 74 17 c88 21 124 12 124 -32 0 -22 2 -25 15 -14 12 10
15 9 15 -4 0 -10 4 -15 9 -11 5 3 22 0 36 -7 23 -10 29 -10 40 5 7 10 19 15
29 11 12 -4 16 0 16 15 0 24 18 28 25 6 13 -41 18 -49 22 -39 2 7 13 10 23 7
15 -4 20 0 20 16 0 25 15 28 24 5 4 -9 9 -14 13 -10 3 3 17 -1 30 -9 13 -9 24
-13 24 -10 1 3 3 10 4 15 1 6 3 13 4 18 1 4 7 0 14 -8 15 -20 45 -20 57 0 7
12 12 12 22 2 6 -6 19 -12 27 -12 12 0 12 3 3 12 -14 14 -16 48 -2 48 5 0 12
-11 16 -24 8 -34 56 -30 64 5 4 16 8 20 14 11 4 -7 4 -21 1 -32 -4 -11 -2 -20
4 -20 6 0 11 7 11 15 0 8 5 15 10 15 6 0 10 -8 10 -18 0 -22 40 -25 53 -4 5 7
13 10 18 6 5 -3 15 -1 22 5 8 6 18 6 27 1 30 -19 33 -9 7 18 -29 30 -26 45 7
40 13 -2 25 -19 36 -54z m-6713 24 c-3 -8 -6 -5 -6 6 -1 11 2 17 5 13 3 -3 4
-12 1 -19z m443 1 c0 -5 -4 -9 -10 -9 -5 0 -10 7 -10 16 0 8 5 12 10 9 6 -3
10 -10 10 -16z m5650 -5 c0 -8 -4 -14 -10 -14 -5 0 -10 9 -10 21 0 11 5 17 10
14 6 -3 10 -13 10 -21z m180 -16 c0 -17 -3 -18 -15 -8 -8 7 -15 21 -15 32 0
17 3 18 15 8 8 -7 15 -21 15 -32z m280 26 c0 -8 -4 -12 -10 -9 -5 3 -10 10
-10 16 0 5 5 9 10 9 6 0 10 -7 10 -16z m-544 -31 c-11 -11 -17 4 -9 23 7 18 8
18 11 1 2 -10 1 -21 -2 -24z m174 17 c0 -11 -4 -20 -10 -20 -5 0 -10 9 -10 20
0 11 5 20 10 20 6 0 10 -9 10 -20z m440 4 c0 -8 -4 -12 -10 -9 -5 3 -10 10
-10 16 0 5 5 9 10 9 6 0 10 -7 10 -16z m-6220 -4 c0 -5 -2 -10 -4 -10 -3 0 -8
5 -11 10 -3 6 -1 10 4 10 6 0 11 -4 11 -10z m5950 -5 c0 -8 -4 -15 -10 -15 -5
0 -10 7 -10 15 0 8 5 15 10 15 6 0 10 -7 10 -15z m-307 -20 c-8 -22 -22 -18
-16 5 3 11 9 17 14 15 4 -3 6 -12 2 -20z m537 15 c0 -5 -2 -10 -4 -10 -3 0 -8
5 -11 10 -3 6 -1 10 4 10 6 0 11 -4 11 -10z m-3270 -41 c0 -22 -13 -25 -29 -6
-8 10 -7 17 1 25 15 15 28 6 28 -19z m-2577 -90 c20 -5 37 -14 37 -19 0 -15
154 -59 277 -80 61 -11 187 -24 280 -30 238 -14 3626 -25 3966 -12 l268 10 33
38 32 37 215 2 c136 1 285 10 409 23 218 24 433 28 559 10 l83 -11 55 -66
c121 -147 260 -374 346 -566 185 -415 275 -778 412 -1660 94 -603 175 -1027
210 -1095 15 -31 65 -254 100 -450 14 -80 27 -153 29 -162 2 -9 -4 -23 -13
-31 -14 -13 -21 -9 -61 44 -44 57 -70 74 -70 45 0 -8 20 -39 45 -69 25 -31 45
-59 45 -64 -1 -16 -37 -51 -56 -55 -10 -2 -19 -10 -19 -18 -1 -8 -15 -35 -33
-59 -55 -75 -31 -104 25 -30 l31 40 16 -23 c15 -21 14 -24 -21 -60 -20 -21
-43 -38 -50 -38 -7 0 -13 -5 -13 -12 0 -7 -12 -24 -26 -39 -18 -18 -24 -34
-20 -45 6 -15 11 -13 40 15 29 29 34 30 46 16 12 -14 6 -23 -40 -70 -48 -49
-56 -53 -70 -40 -33 30 -52 15 -25 -21 8 -10 15 -25 15 -32 0 -8 10 -22 23
-32 l22 -18 -24 -26 c-14 -14 -28 -26 -32 -26 -4 0 -33 38 -64 85 -31 47 -63
85 -71 85 -24 0 -16 -17 47 -112 l61 -90 -63 -64 c-50 -50 -61 -66 -51 -76 10
-10 25 1 75 50 l62 61 23 -34 c28 -44 28 -47 -7 -73 l-30 -22 -19 25 c-20 25
-42 33 -42 15 0 -22 39 -78 98 -140 34 -36 62 -68 62 -72 0 -4 -16 -19 -35
-34 -27 -20 -39 -24 -47 -16 -16 16 -38 15 -38 -1 0 -8 9 -22 21 -33 12 -10
34 -35 50 -55 l28 -36 -30 -22 -31 -23 -27 26 c-48 46 -70 29 -27 -21 l25 -28
-21 -22 c-28 -30 -15 -42 22 -21 27 16 29 15 54 -11 l26 -27 -40 -39 -40 -39
-63 62 c-49 49 -65 60 -75 50 -10 -10 1 -26 50 -75 l62 -63 -27 -28 c-49 -51
-31 -71 23 -25 l32 26 26 -27 27 -27 -73 -67 c-40 -37 -72 -70 -72 -74 1 -23
44 0 108 58 71 65 95 73 47 16 -44 -53 -168 -140 -265 -186 -70 -34 -136 -55
-248 -81 -83 -19 -168 -42 -188 -50 -82 -34 -176 -15 -401 81 -149 64 -236
119 -313 200 -101 106 -146 196 -260 514 -33 93 -37 111 -23 105 37 -14 113
-18 113 -6 0 13 0 13 -83 36 -63 17 -87 48 -67 85 9 17 12 17 82 -5 105 -33
168 -42 168 -22 0 11 -23 20 -77 32 -43 10 -95 24 -115 32 l-37 15 18 46 c21
51 26 53 109 38 34 -6 42 -5 42 7 0 17 -12 22 -72 33 -42 7 -44 11 -25 39 12
15 19 16 45 7 23 -8 33 -8 38 0 10 16 -18 33 -81 48 -30 7 -55 16 -55 20 0 17
23 70 30 70 4 0 27 -7 50 -15 53 -19 70 -19 70 0 0 13 -74 42 -158 60 -26 5
-32 11 -27 23 4 10 10 25 12 35 6 21 23 21 85 2 32 -9 50 -10 54 -4 11 18 -9
28 -101 50 -50 12 -91 23 -93 25 -2 1 6 21 18 44 20 38 24 42 51 36 16 -3 43
-9 59 -12 23 -5 30 -3 30 9 0 10 -17 19 -50 27 -42 10 -50 15 -45 30 9 27 -16
37 -32 13 -10 -14 -21 -18 -43 -15 -32 5 -36 13 -21 41 8 15 18 16 63 10 29
-3 57 -3 62 1 16 15 -5 30 -44 30 -21 0 -42 4 -45 10 -7 12 22 70 35 70 6 0
10 7 10 15 0 9 9 33 20 54 10 21 16 41 13 45 -14 14 -31 4 -43 -24 -7 -17 -16
-32 -19 -34 -4 -3 -29 3 -56 12 -42 15 -50 21 -47 40 4 27 -9 28 -33 2 -13
-14 -25 -18 -44 -13 -14 3 -28 7 -29 9 -2 1 8 22 22 47 29 48 32 67 14 67 -7
0 -30 -28 -51 -61 l-37 -61 -43 7 c-23 4 -43 10 -45 14 -1 3 -15 28 -30 56
-25 46 -35 53 -142 107 -63 32 -121 58 -129 58 -8 0 -29 -11 -48 -26 -45 -34
-146 -80 -218 -99 -71 -18 -228 -33 -421 -39 -135 -4 -141 -3 -137 15 6 23
-25 27 -33 4 -5 -12 -9 -13 -20 -4 -11 9 -19 8 -34 -6 -18 -16 -20 -16 -20 -2
0 10 -4 17 -10 17 -5 0 -10 9 -10 20 0 29 -25 25 -39 -6 -6 -15 -15 -24 -18
-20 -4 3 -1 12 5 18 14 14 16 48 3 48 -5 0 -19 -14 -31 -30 -25 -35 -41 -39
-33 -9 5 19 3 21 -20 15 -21 -5 -32 1 -66 41 -23 25 -55 71 -72 100 -27 47
-35 54 -58 51 -14 -2 -30 -12 -35 -23 -9 -20 -17 -20 -882 -17 l-873 4 -25
-29 c-25 -27 -25 -27 -26 -5 0 39 -28 26 -32 -15 l-3 -38 -15 44 c-13 40 -33
61 -47 48 -3 -3 2 -27 11 -53 22 -66 19 -68 -9 -6 -15 32 -30 52 -41 52 -9 0
-14 -6 -11 -12 39 -97 46 -119 39 -114 -5 3 -15 23 -22 46 -15 45 -27 57 -41
43 -6 -6 -2 -27 11 -57 25 -60 25 -73 -1 -23 -11 20 -23 37 -28 37 -17 0 -19
-14 -6 -41 17 -33 19 -49 5 -49 -5 0 -12 11 -16 26 -7 28 -41 30 -36 1 2 -10
-4 -17 -14 -17 -11 0 -15 -6 -11 -20 3 -11 1 -22 -4 -25 -5 -3 -14 15 -20 40
-7 26 -17 45 -25 45 -16 0 -18 -22 -5 -67 11 -39 9 -39 -110 -53 -197 -23
-428 34 -711 176 -59 30 -114 54 -122 54 -8 0 -21 -8 -28 -18 -7 -10 -38 -35
-70 -55 -31 -21 -62 -44 -68 -52 -7 -8 -20 -15 -30 -15 -10 0 -22 -6 -28 -12
-5 -7 -27 -85 -47 -173 -36 -151 -106 -422 -140 -540 -13 -43 -22 -55 -46 -65
-16 -7 -31 -11 -32 -9 -2 2 -17 35 -33 73 -28 66 -54 96 -54 62 0 -9 12 -45
26 -82 19 -47 24 -68 16 -76 -8 -8 -15 -8 -26 1 -18 15 -40 5 -32 -14 3 -8
-23 -25 -75 -49 -53 -23 -79 -41 -79 -52 0 -13 6 -15 32 -10 17 3 39 12 47 20
9 8 33 21 54 30 37 15 38 15 47 -10 13 -35 13 -37 -10 -52 -17 -10 -21 -10
-26 3 -4 8 -13 15 -21 15 -11 0 -14 -7 -10 -25 3 -18 -2 -30 -17 -40 -25 -19
-46 -19 -46 -2 0 7 -6 22 -14 33 -11 14 -18 16 -26 8 -9 -9 -8 -20 5 -44 12
-24 14 -35 5 -45 -14 -17 -5 -36 13 -29 7 2 17 -9 24 -26 11 -29 10 -31 -28
-51 l-40 -20 -16 38 c-8 21 -19 48 -24 61 -9 23 -24 29 -33 13 -3 -4 5 -36 18
-69 23 -59 24 -61 5 -67 -19 -6 -25 -25 -13 -38 4 -3 15 -2 25 4 16 8 21 5 31
-16 13 -29 11 -32 -54 -70 -35 -19 -48 -23 -48 -13 0 22 -26 52 -38 44 -8 -5
-8 -15 0 -38 10 -28 9 -33 -10 -46 -40 -26 -24 -54 18 -32 15 8 21 6 30 -9 17
-32 12 -50 -20 -66 -16 -8 -33 -15 -38 -15 -4 0 -19 25 -31 55 -13 30 -29 55
-37 55 -20 0 -17 -17 11 -79 14 -30 24 -55 23 -56 -23 -17 -44 -21 -59 -12
-32 20 -34 -2 -5 -60 17 -36 24 -59 17 -61 -6 -2 -11 -11 -11 -19 0 -10 6 -14
20 -10 15 4 24 -2 35 -23 16 -30 13 -36 -32 -59 -19 -10 -24 -7 -43 24 -12 19
-28 35 -36 35 -8 0 -14 -2 -14 -5 0 -10 42 -89 63 -119 16 -23 17 -30 6 -37
-16 -10 -27 -12 -51 -10 -10 1 -18 -4 -18 -13 0 -9 -5 -16 -11 -16 -6 0 -9 -8
-7 -17 2 -10 12 -18 22 -18 11 0 21 -6 23 -12 3 -7 0 -13 -6 -13 -26 0 -161
-64 -161 -76 0 -21 17 -17 110 21 l85 35 -34 -30 c-72 -62 -225 -126 -355
-149 -191 -34 -464 13 -668 114 -343 172 -572 470 -643 837 -21 107 -21 329 0
418 8 36 55 288 105 560 101 552 85 505 189 563 l49 27 55 -45 c52 -42 87 -57
87 -36 0 5 -22 28 -50 51 -27 23 -50 45 -50 50 0 4 13 13 30 20 25 11 33 9 60
-10 24 -17 34 -20 43 -11 9 9 6 17 -13 32 -14 11 -20 22 -15 25 32 14 40 23
28 35 -9 9 -19 9 -42 0 -26 -11 -33 -10 -60 10 -17 13 -31 26 -31 30 0 6 78
39 93 39 4 0 25 -16 47 -37 28 -25 44 -33 51 -26 7 7 1 22 -21 47 -26 29 -30
39 -21 50 15 18 0 29 -31 21 -18 -5 -31 2 -57 29 -19 20 -33 37 -30 39 2 2 25
11 52 21 28 11 47 24 47 33 0 18 -20 15 -93 -13 l-47 -18 -27 26 c-30 31 -33
28 67 53 l65 16 88 -92 c59 -62 91 -89 98 -82 11 11 -42 82 -105 142 -39 37
-45 51 -21 51 7 0 18 8 24 18 9 15 16 11 60 -33 41 -40 53 -47 63 -36 11 10
-2 27 -64 86 l-77 73 29 6 c19 3 30 12 30 22 0 13 -8 15 -47 9 -47 -6 -49 -5
-91 38 l-43 44 32 7 c80 16 89 12 189 -89 82 -82 130 -115 130 -87 0 4 -38 45
-85 92 -63 63 -82 87 -74 96 15 19 2 34 -30 34 -18 0 -40 13 -69 43 -23 23
-42 46 -42 49 0 3 21 13 46 22 l47 16 39 -45 c36 -41 58 -50 58 -24 0 5 -29
42 -64 83 l-64 73 45 10 c42 10 45 9 66 -18 21 -29 41 -37 51 -20 3 4 -19 37
-50 72 l-55 64 37 9 c36 8 40 7 66 -25 21 -25 31 -30 39 -22 9 9 0 28 -35 77
-25 35 -46 72 -46 80 0 9 -6 16 -13 16 -7 0 -23 13 -35 29 l-22 30 55 6 c39 5
55 12 55 22 0 12 -13 14 -64 12 -72 -4 -79 0 -131 70 l-34 47 49 247 c165 830
364 1321 694 1715 47 56 86 107 86 111 0 9 29 20 85 35 35 9 1018 -5 1058 -15z
m-1954 -2217 c-39 -4 -41 -2 -32 38 l6 34 29 -35 29 -34 -32 -3z m80 -61 l16
-24 -58 6 c-98 10 -114 50 -18 45 33 -2 47 -9 60 -27z m-87 -88 c21 -20 38
-41 38 -45 0 -4 -22 -8 -50 -8 -45 0 -50 2 -50 23 0 29 11 67 18 67 3 0 23
-17 44 -37z m153 1 l23 -29 -21 -7 c-52 -15 -73 -9 -107 33 l-33 42 57 -5 c49
-4 61 -9 81 -34z m-55 -111 l22 -28 -24 -6 c-51 -15 -74 -9 -108 26 l-34 35
61 0 c55 0 64 -3 83 -27z m-141 -27 l22 -24 -30 -4 c-28 -4 -31 -2 -31 24 0
34 10 35 39 4z m81 -81 c13 -14 22 -27 19 -29 -2 -1 -25 -10 -51 -19 -46 -15
-46 -15 -72 12 -43 44 -35 52 60 59 11 1 31 -9 44 -23z m-125 -65 c3 -5 -1
-10 -9 -10 -9 0 -16 5 -16 10 0 6 4 10 9 10 6 0 13 -4 16 -10z m60 -133 c-82
-10 -106 4 -96 56 5 25 13 33 36 38 26 5 37 -1 78 -40 l48 -46 -66 -8z m-23
-94 l39 -38 -43 -8 c-39 -7 -45 -5 -70 22 -16 19 -25 37 -21 49 7 30 50 19 95
-25z m103 -103 c21 -22 24 -31 14 -34 -8 -2 -22 -7 -32 -10 -23 -7 -102 55
-84 66 28 18 73 8 102 -22z m-92 -61 c-10 -9 -136 -39 -142 -33 -2 2 0 25 5
51 13 66 42 73 102 25 24 -19 39 -39 35 -43z m-124 -113 l22 -23 -23 -7 c-36
-9 -38 -8 -38 24 0 36 9 38 39 6z m96 -86 l38 -39 -44 -20 c-57 -27 -58 -26
-102 10 -57 47 -46 61 63 88 3 0 23 -17 45 -39z m-127 -76 c12 -8 22 -19 22
-24 0 -7 -61 -33 -65 -28 -5 6 8 68 14 68 4 0 17 -7 29 -16z m93 -75 c36 -26
36 -35 1 -53 -27 -14 -31 -13 -67 17 l-38 31 29 13 c39 16 42 16 75 -8z m-96
-56 l34 -27 -45 -29 c-25 -15 -49 -27 -53 -25 -10 5 9 108 20 108 6 0 25 -12
44 -27z m7205 -581 c0 -5 -6 -16 -13 -26 -12 -17 -14 -16 -25 8 -11 24 -10 26
13 26 14 0 25 -4 25 -8z m100 -7 c0 -3 -12 -24 -27 -46 -23 -35 -30 -39 -52
-34 -35 9 -36 11 -17 30 9 9 21 25 26 36 7 12 21 19 40 19 17 0 30 -2 30 -5z
m108 -20 l51 -16 -20 -43 c-18 -36 -25 -42 -45 -38 -19 3 -22 8 -14 22 14 26
12 40 -5 40 -9 0 -21 -11 -27 -25 -11 -25 -41 -34 -53 -15 -6 10 42 90 55 90
3 0 30 -7 58 -15z m2052 -110 c13 -24 12 -28 -18 -57 l-31 -31 -12 25 c-10 23
-8 31 10 57 27 38 34 38 51 6z m-2154 -5 c13 0 13 -4 0 -29 -12 -23 -20 -27
-41 -24 -14 3 -25 9 -25 14 0 20 26 49 38 44 8 -3 20 -5 28 -5z m78 -16 c12
-5 13 -10 4 -30 -12 -25 -17 -28 -42 -18 -12 5 -13 10 -4 30 12 25 17 28 42
18z m2095 -110 c-15 -18 -28 -18 -36 2 -3 9 4 26 18 40 l24 26 3 -27 c2 -14
-2 -33 -9 -41z m-2129 26 c8 0 -30 -93 -44 -107 -3 -3 -10 7 -16 23 -14 37 11
100 36 90 9 -3 20 -6 24 -6z m106 -21 c7 -12 -24 -89 -36 -89 -4 0 -21 3 -38
6 l-31 6 22 44 c17 36 26 44 48 44 15 0 31 -5 35 -11z m1968 -36 c4 -11 -4
-28 -25 -49 -30 -31 -33 -32 -45 -16 -11 15 -8 22 19 50 35 37 42 39 51 15z
m76 -23 c0 -5 -2 -10 -4 -10 -3 0 -8 5 -11 10 -3 6 -1 10 4 10 6 0 11 -4 11
-10z m-30 -49 c0 -9 -13 -30 -29 -45 -27 -26 -30 -27 -39 -9 -9 14 -5 24 20
50 32 33 48 35 48 4z m-2092 -7 l31 -6 -17 -34 c-27 -58 -81 -37 -65 26 6 22
7 23 51 14z m106 -23 c9 -14 -15 -71 -29 -71 -7 0 -20 3 -29 6 -13 5 -13 9 1
40 16 32 45 45 57 25z m2026 -60 c0 -58 -17 -71 -51 -35 l-23 24 29 30 c16 17
32 30 37 30 4 0 8 -22 8 -49z m-127 5 c9 -22 -34 -56 -61 -49 l-23 6 27 28
c30 32 49 37 57 15z m-1936 -50 c1 -1 -6 -18 -15 -38 -15 -31 -20 -35 -39 -27
-26 10 -28 18 -11 53 9 21 16 24 37 19 14 -3 27 -6 28 -7z m1991 -77 c-12 -16
-25 -29 -28 -29 -3 0 -17 14 -29 31 l-23 31 28 29 27 28 23 -30 23 -31 -21
-29z m-1921 63 c19 -12 -11 -72 -37 -72 -23 0 -25 17 -8 55 11 26 24 30 45 17z
m1783 -36 c-7 -9 -17 -16 -22 -16 -16 0 -21 30 -7 46 11 13 14 13 27 0 13 -12
13 -18 2 -30z m80 -92 c0 -12 -28 -40 -33 -33 -46 59 -49 70 -32 89 18 20 18
19 41 -12 13 -18 24 -37 24 -44z m130 17 c0 -17 -29 -51 -44 -51 -6 0 -16 8
-23 18 -9 15 -7 25 14 51 24 30 26 31 39 14 7 -10 14 -24 14 -32z m-2030 -5
c0 -31 -13 -46 -40 -46 -27 0 -28 1 -17 30 8 21 18 30 34 30 13 0 23 -6 23
-14z m-5485 -44 c-6 -16 -7 -16 -17 2 -8 14 -7 21 3 27 17 10 24 -4 14 -29z
m5565 25 c0 -7 -6 -21 -13 -31 -20 -27 -48 -9 -36 22 9 24 49 31 49 9z m1739
-16 c26 -37 26 -43 -3 -70 l-23 -22 -28 36 -27 36 23 25 c29 31 33 30 58 -5z
m-7350 -23 c7 -17 5 -26 -7 -36 -14 -10 -18 -8 -30 14 -12 22 -12 28 0 35 21
13 28 11 37 -13z m7478 -4 c3 -8 -1 -23 -10 -31 -13 -14 -19 -14 -32 -3 -14
12 -14 15 1 31 21 23 33 24 41 3z m-1983 -29 c-4 -8 -8 -15 -10 -15 -2 0 -4 7
-4 15 0 8 4 15 10 15 5 0 7 -7 4 -15z m2066 5 c0 -5 -4 -10 -10 -10 -5 0 -10
5 -10 10 0 6 5 10 10 10 6 0 10 -4 10 -10z m-1999 -8 c14 -6 14 -11 -3 -49
-19 -44 -41 -55 -52 -28 -5 15 22 86 33 84 3 0 13 -3 22 -7z m1839 -67 c-27
-29 -38 -31 -47 -9 -3 8 4 25 18 40 20 22 25 23 38 9 13 -13 12 -17 -9 -40z
m133 29 c18 -25 18 -26 1 -45 -19 -21 -19 -21 -42 6 -22 26 -22 28 -6 46 22
24 25 24 47 -7z m-7513 -1 c-1 -18 -18 -35 -24 -24 -4 6 -4 16 -1 21 7 12 25
13 25 3z m-48 -101 c-22 -17 -35 -11 -46 21 -8 22 -6 30 10 41 17 13 20 12 36
-17 16 -30 16 -33 0 -45z m7518 7 c0 -3 -11 -16 -25 -29 l-26 -24 -24 29 -23
30 26 28 26 27 23 -27 c12 -16 22 -31 23 -34z m-156 24 c5 -11 -2 -26 -19 -42
-24 -24 -26 -25 -42 -8 -17 17 -17 19 10 43 33 28 43 30 51 7z m-7430 -48 c4
-16 -1 -25 -24 -38 l-29 -18 -15 30 c-15 29 -15 30 17 50 33 21 38 19 51 -24z
m7481 -74 l-24 -25 -26 24 -25 24 27 28 28 29 22 -28 23 -28 -25 -24z m155 26
c0 -11 -8 -29 -17 -39 -16 -18 -17 -18 -40 4 l-23 22 27 28 c29 30 53 24 53
-15z m-7605 -24 c4 -13 -2 -25 -22 -40 l-28 -23 -10 21 c-7 17 -5 25 14 40 29
23 37 24 46 2z m7524 -89 l-23 -24 -23 22 c-29 27 -29 43 0 63 21 15 23 14 45
-11 l23 -26 -22 -24z m-7619 47 c0 -5 3 -16 6 -24 3 -9 -8 -23 -31 -37 -20
-12 -37 -21 -39 -19 -26 31 -23 44 12 66 41 25 52 28 52 14z m80 -56 c0 -8 -4
-15 -10 -15 -5 0 -10 7 -10 15 0 8 5 15 10 15 6 0 10 -7 10 -15z m7463 -13
l27 -28 -39 -32 -40 -32 -22 31 -22 32 34 28 c19 16 34 29 35 29 0 0 12 -13
27 -28z m130 -25 c-8 -42 -9 -43 -33 -22 l-20 18 21 23 c28 30 40 22 32 -19z
m-7623 -34 c0 -15 -10 -28 -30 -38 -16 -8 -31 -15 -34 -15 -7 0 -39 61 -34 64
59 40 73 45 86 29 6 -9 12 -27 12 -40z m7552 -65 l-32 -33 -22 23 -23 23 35
29 c35 29 35 29 55 9 19 -19 19 -19 -13 -51z m-7664 27 c17 -37 15 -41 -18
-55 -27 -11 -32 -10 -49 11 -17 21 -20 22 -26 7 -4 -9 -2 -26 5 -37 8 -17 8
-21 -4 -21 -8 0 -19 13 -24 30 -10 28 -9 30 36 59 58 37 66 37 80 6z m7699
-70 c-11 -36 -21 -43 -32 -24 -6 8 30 59 41 59 1 0 -3 -16 -9 -35z m-101 -6
c3 -6 -6 -24 -22 -40 l-28 -29 -26 25 -25 26 28 25 c28 24 55 22 73 -7z
m-7546 -36 c0 -7 -12 -20 -26 -30 -25 -16 -27 -16 -40 2 -20 27 -17 38 14 56
24 15 28 15 40 1 6 -9 12 -22 12 -29z m7604 -22 c16 -17 16 -21 0 -54 l-17
-36 -34 26 -34 26 27 29 c33 33 36 34 58 9z m-7704 -10 c5 -11 10 -24 10 -30
0 -17 -27 -13 -34 5 -16 41 4 62 24 25z m-52 -36 c11 -23 9 -27 -21 -45 -40
-25 -44 -25 -57 -1 -15 29 -13 35 18 53 37 24 47 22 60 -7z m7702 -64 c0 -4
-18 -25 -40 -46 l-40 -39 -27 27 -27 27 38 39 39 40 29 -20 c15 -11 28 -24 28
-28z m-7615 -2 c-7 -20 -8 -21 -17 -5 -5 9 -7 24 -4 33 10 26 29 -1 21 -28z
m-197 6 c10 -21 9 -26 -8 -35 -25 -14 -28 -13 -40 11 -9 15 -8 24 1 35 17 21
34 17 47 -11z m150 -29 c10 -22 8 -27 -23 -45 l-35 -20 -14 27 c-13 25 -13 28
12 44 36 24 47 23 60 -6z m-104 -54 c13 -26 13 -29 -5 -40 -10 -7 -23 -12 -27
-12 -9 0 -36 50 -30 55 5 3 43 24 45 25 1 0 9 -13 17 -28z m90 -37 c-7 -16
-24 -21 -24 -6 0 8 7 13 27 20 1 1 0 -6 -3 -14z m-40 -40 c3 -8 -4 -21 -17
-30 -19 -13 -23 -13 -37 1 -13 14 -13 17 4 30 25 18 42 18 50 -1z m-91 -73
c-41 -31 -52 -33 -62 -13 -9 16 -6 23 22 40 30 19 33 20 45 3 11 -14 10 -19
-5 -30z m15 -51 c-22 -27 -38 -31 -38 -11 0 8 45 38 58 40 2 0 -7 -13 -20 -29z
m-59 -45 c9 -11 5 -16 -21 -25 -41 -14 -64 2 -34 25 25 18 40 18 55 0z"/>
<path d="M5160 9439 c-47 -5 -121 -16 -166 -24 -44 -8 -95 -15 -112 -15 -27 0
-32 -4 -36 -32 -9 -65 -36 -1312 -28 -1320 8 -8 193 -20 632 -39 325 -14 1986
-22 2355 -12 l280 8 -1 410 c0 404 -9 569 -47 890 l-12 100 -50 -2 c-353 -18
-552 -23 -885 -23 -436 0 -703 10 -1059 41 -266 23 -741 33 -871 18z m895 -68
c391 -35 698 -44 1225 -37 267 4 533 10 592 14 l107 7 5 -30 c9 -51 35 -322
46 -483 12 -185 13 -779 1 -786 -4 -3 -276 -10 -603 -16 -598 -10 -1457 -2
-1978 20 -129 5 -310 12 -402 16 -92 4 -172 10 -178 14 -8 5 -6 173 5 621 9
338 18 619 20 625 4 12 129 38 260 54 119 15 647 3 900 -19z"/>
<path d="M5445 8710 c-44 -5 -98 -11 -120 -14 -56 -6 -71 -14 -84 -42 -16 -36
-14 -120 5 -159 30 -65 55 -70 364 -72 181 -2 290 1 319 9 108 28 157 153 87
223 -42 42 -115 56 -311 60 -99 2 -216 0 -260 -5z m152 -62 c-3 -8 -6 -5 -6 6
-1 11 2 17 5 13 3 -3 4 -12 1 -19z m53 6 c0 -14 -3 -14 -15 -4 -8 7 -15 14
-15 16 0 2 7 4 15 4 8 0 15 -7 15 -16z m-153 -33 c27 -38 63 -60 63 -39 0 6 8
7 17 4 9 -4 19 -2 23 4 5 8 15 8 36 0 24 -9 31 -8 43 7 11 15 13 15 8 2 -9
-28 42 -32 53 -5 9 20 9 21 9 1 1 -16 9 -21 32 -23 27 -2 30 0 20 12 -8 10 -9
16 -1 21 5 3 10 1 10 -4 0 -6 6 -11 14 -11 8 0 16 -6 18 -12 3 -9 9 -8 22 5
10 9 14 22 10 29 -5 9 -2 8 9 -1 25 -20 33 -5 11 20 l-19 22 34 -7 c107 -20
119 -108 21 -158 -29 -15 -69 -17 -305 -17 -258 -1 -274 0 -298 19 -36 29 -52
82 -35 117 10 22 22 29 55 34 24 3 46 8 49 12 4 4 22 7 40 7 27 0 38 -7 61
-39z m273 19 c0 -5 -5 -10 -11 -10 -5 0 -7 5 -4 10 3 6 8 10 11 10 2 0 4 -4 4
-10z m85 0 c3 -5 1 -10 -4 -10 -6 0 -11 5 -11 10 0 6 2 10 4 10 3 0 8 -4 11
-10z m-219 -27 c-7 -7 -26 7 -26 19 0 6 6 6 15 -2 9 -7 13 -15 11 -17z m91 -5
c-3 -8 -6 -5 -6 6 -1 11 2 17 5 13 3 -3 4 -12 1 -19z m118 2 c3 -5 1 -10 -4
-10 -6 0 -11 5 -11 10 0 6 2 10 4 10 3 0 8 -4 11 -10z"/>
<path d="M7055 8710 c-38 -4 -95 -11 -125 -14 -74 -8 -90 -28 -90 -113 0 -76
18 -116 63 -140 28 -16 67 -18 322 -20 l290 -2 52 25 c41 20 56 34 73 69 40
82 4 151 -94 180 -60 19 -381 28 -491 15z m119 -77 c-2 -33 10 -44 19 -20 3 7
6 4 6 -6 1 -11 5 -15 13 -11 8 5 9 2 5 -10 -5 -12 -3 -16 5 -13 7 2 21 0 31
-5 16 -8 18 -7 13 10 -4 11 -2 23 4 27 6 3 10 -4 11 -17 0 -13 3 -17 6 -10 2
6 9 9 14 6 6 -3 16 0 24 6 12 10 15 10 15 -1 1 -9 5 -8 15 5 14 19 15 18 15
-10 l1 -29 19 35 c16 29 19 32 20 13 0 -15 5 -21 14 -17 9 4 16 -3 18 -18 l4
-23 13 27 c9 18 19 24 30 20 13 -5 14 -3 3 10 -15 19 -6 48 15 48 30 0 85 -34
94 -58 12 -32 -14 -78 -60 -103 -30 -16 -63 -18 -309 -18 l-274 -1 -34 34
c-25 25 -34 43 -34 68 0 47 17 65 70 72 25 4 70 10 100 15 30 5 69 8 85 7 27
-1 30 -4 29 -33z m196 27 c0 -5 -4 -10 -10 -10 -5 0 -10 5 -10 10 0 6 5 10 10
10 6 0 10 -4 10 -10z m60 -16 c0 -8 -4 -12 -10 -9 -5 3 -10 10 -10 16 0 5 5 9
10 9 6 0 10 -7 10 -16z m40 6 c0 -5 -2 -10 -4 -10 -3 0 -8 5 -11 10 -3 6 -1
10 4 10 6 0 11 -4 11 -10z m-15 -30 c3 -5 1 -10 -4 -10 -6 0 -11 5 -11 10 0 6
2 10 4 10 3 0 8 -4 11 -10z"/>
<path d="M9471 9335 c-18 -8 -42 -15 -53 -15 -31 0 -132 -110 -169 -185 -27
-55 -33 -82 -37 -148 -2 -45 1 -101 7 -124 16 -60 69 -132 124 -170 108 -73
299 -107 383 -67 52 25 143 118 179 184 27 50 30 63 30 150 0 85 -3 101 -29
154 -37 76 -124 163 -205 204 -53 27 -73 32 -129 32 -37 -1 -82 -7 -101 -15z
m82 -82 c-3 -27 12 -31 21 -6 6 15 8 15 23 0 15 -15 15 -18 -1 -36 -14 -15
-23 -18 -37 -11 -22 12 -29 13 -29 2 0 -5 9 -13 20 -18 19 -9 19 -9 -1 -41
-15 -23 -29 -33 -47 -34 -17 -1 -21 -3 -9 -6 9 -2 17 -11 17 -19 0 -16 17 -19
22 -3 2 5 11 7 21 4 13 -6 14 -11 6 -26 -12 -23 6 -27 18 -4 5 9 13 11 22 5
12 -7 12 -12 -3 -35 -10 -15 -15 -30 -11 -33 6 -7 16 3 40 42 7 11 14 13 25 6
12 -8 11 -14 -9 -40 -12 -17 -20 -35 -16 -38 6 -7 25 14 45 48 7 13 13 12 44
-3 20 -9 43 -17 51 -17 19 0 19 -24 0 -40 -14 -12 -29 -11 -67 5 -32 13 -19
-11 15 -27 17 -8 34 -15 37 -15 3 0 16 -5 28 -12 l24 -13 -23 -24 c-12 -13
-19 -27 -15 -31 4 -5 18 5 31 21 17 21 28 27 44 21 27 -8 27 -14 -7 -61 -47
-64 -130 -133 -169 -140 -78 -15 -240 36 -305 94 -62 56 -82 104 -83 192 0 65
4 85 32 140 37 76 68 108 143 149 65 36 106 37 103 4z m81 18 c3 -4 3 -11 0
-14 -8 -8 -34 3 -34 14 0 11 27 12 34 0z m54 -20 c11 -6 11 -10 0 -19 -16 -13
-44 1 -34 17 8 13 16 14 34 2z m42 -30 c0 -12 -20 -25 -27 -18 -7 7 6 27 18
27 5 0 9 -4 9 -9z m-76 -9 c9 -14 -28 -52 -42 -43 -12 7 -12 12 -1 30 14 21
34 28 43 13z m37 -51 c-13 -23 -26 -27 -36 -10 -4 5 1 19 11 30 22 25 41 10
25 -20z m77 20 c3 -8 -1 -12 -9 -9 -7 2 -15 10 -17 17 -3 8 1 12 9 9 7 -2 15
-10 17 -17z m-22 -23 c9 -14 -23 -38 -42 -31 -13 5 -12 8 2 24 20 22 30 24 40
7z m-139 -14 c1 -5 -5 -19 -15 -31 -12 -16 -21 -20 -31 -14 -12 8 -12 13 3 36
16 25 36 30 43 9z m53 -23 c0 -3 -8 -16 -18 -28 -12 -16 -21 -20 -31 -14 -12
8 -12 13 2 35 11 16 23 23 32 20 8 -4 15 -9 15 -13z m120 9 c0 -5 -4 -10 -10
-10 -5 0 -10 5 -10 10 0 6 5 10 10 10 6 0 10 -4 10 -10z m40 -10 c0 -5 -4 -10
-10 -10 -5 0 -10 5 -10 10 0 6 5 10 10 10 6 0 10 -4 10 -10z m-123 -29 c3 -25
-24 -48 -39 -33 -8 8 -6 18 6 37 19 28 28 27 33 -4z m103 -1 c0 -5 -7 -10 -16
-10 -8 0 -12 5 -9 10 3 6 10 10 16 10 5 0 9 -4 9 -10z m-76 -34 c-6 -16 -24
-23 -24 -8 0 10 22 33 27 28 2 -2 1 -11 -3 -20z m126 14 c0 -5 -7 -10 -15 -10
-8 0 -15 5 -15 10 0 6 7 10 15 10 8 0 15 -4 15 -10z m-80 -30 c-11 -21 -22
-25 -33 -13 -9 9 12 33 30 33 11 0 11 -4 3 -20z m53 3 c9 -9 -22 -43 -40 -43
-17 0 -17 10 4 32 17 19 26 22 36 11z m55 -46 c3 -21 0 -26 -12 -22 -9 3 -23
7 -31 10 -13 4 -14 9 -5 25 16 29 44 21 48 -13z m-30 -35 c9 -6 6 -14 -13 -32
-19 -18 -29 -21 -45 -14 -19 8 -19 11 -5 32 17 23 40 28 63 14z m25 -66 c-6
-10 -13 -12 -23 -6 -12 7 -11 12 5 30 17 18 21 19 23 6 2 -8 0 -22 -5 -30z"/>
<path d="M3195 9055 c-5 -2 -41 -6 -80 -7 l-70 -3 0 -65 c1 -36 5 -137 9 -225
l8 -160 123 -125 c67 -69 125 -133 128 -142 14 -40 46 -16 171 130 71 81 137
150 147 154 21 8 22 -8 -7 258 -9 80 -18 147 -21 150 -19 20 -375 50 -408 35z
m287 -76 c29 -6 56 -14 60 -18 4 -4 15 -71 23 -149 l16 -141 -112 -128 c-61
-70 -114 -129 -118 -131 -4 -1 -20 11 -36 28 l-29 30 35 1 34 1 -29 12 c-18 8
-24 16 -17 20 6 4 11 18 11 31 0 17 -8 26 -31 34 -18 6 -28 15 -24 21 4 6 -1
17 -10 24 -14 10 -15 17 -8 31 9 15 3 24 -36 53 -25 19 -48 36 -50 39 -3 2 1
9 7 15 9 9 16 7 31 -6 11 -10 25 -16 32 -14 7 2 -9 19 -34 38 -33 23 -44 37
-37 44 7 7 17 7 31 -2 26 -17 40 -5 16 12 -9 7 -17 18 -17 23 0 6 -10 13 -22
17 -17 4 -20 8 -11 17 8 8 18 6 37 -6 15 -10 26 -13 26 -7 0 6 -9 16 -20 22
-11 6 -17 17 -14 24 4 11 0 13 -15 9 -23 -6 -28 6 -9 25 9 9 8 12 -4 12 -9 0
-20 -4 -23 -10 -10 -17 -25 -11 -25 9 0 11 8 22 18 24 36 10 303 7 354 -4z
m-337 -79 c-3 -5 -10 -10 -16 -10 -5 0 -9 5 -9 10 0 6 7 10 16 10 8 0 12 -4 9
-10z m0 -73 c-20 -11 -29 -3 -21 19 5 13 9 14 22 3 14 -11 14 -13 -1 -22z m11
-48 c10 -17 -13 -36 -27 -22 -12 12 -4 33 11 33 5 0 12 -5 16 -11z m-6 -63 c0
-3 -4 -8 -10 -11 -5 -3 -10 -1 -10 4 0 6 5 11 10 11 6 0 10 -2 10 -4z m39 -25
c13 -8 8 -31 -7 -31 -17 1 -34 19 -28 29 9 13 16 14 35 2z m41 -36 c0 -8 -7
-15 -15 -15 -16 0 -20 12 -8 23 11 12 23 8 23 -8z m-76 -1 c12 -5 13 -9 4 -24
-14 -22 -28 -17 -28 11 0 21 1 22 24 13z m50 -32 c2 -4 -2 -16 -10 -27 -11
-14 -17 -16 -26 -7 -8 8 -8 15 2 27 14 16 26 19 34 7z m41 -30 c-3 -3 -11 0
-18 7 -9 10 -8 11 6 5 10 -3 15 -9 12 -12z m65 -46 c0 -11 -19 -15 -25 -6 -3
5 1 10 9 10 9 0 16 -2 16 -4z m-60 -16 c0 -5 -4 -10 -10 -10 -5 0 -10 5 -10
10 0 6 5 10 10 10 6 0 10 -4 10 -10z m35 -20 c-3 -5 -10 -10 -16 -10 -5 0 -9
5 -9 10 0 6 7 10 16 10 8 0 12 -4 9 -10z"/>
<path d="M10178 8633 c-41 -11 -159 -74 -193 -104 -176 -155 -87 -494 162
-612 63 -30 75 -32 173 -32 96 0 110 3 165 29 76 38 144 105 180 181 26 52 29
72 30 150 0 80 -3 97 -29 150 -54 110 -172 198 -307 230 -61 14 -144 18 -181
8z m102 -73 c0 -5 -7 -10 -16 -10 -8 0 -12 5 -9 10 3 6 10 10 16 10 5 0 9 -4
9 -10z m50 -3 c0 -19 -10 -27 -26 -20 -11 4 -12 9 -3 19 15 18 29 18 29 1z
m-153 -10 c-3 -7 2 -22 10 -32 14 -20 14 -20 32 4 10 13 23 21 30 17 7 -5 1
-21 -19 -52 -29 -41 -28 -63 0 -29 16 20 30 19 30 -1 0 -9 6 -14 13 -11 10 4
13 -2 9 -21 l-5 -27 26 23 c14 14 27 19 31 13 4 -5 2 -12 -4 -16 -5 -3 -10
-13 -10 -22 0 -14 4 -13 23 5 24 23 52 29 61 13 3 -5 -1 -14 -9 -21 -8 -7 -15
-20 -15 -29 1 -12 7 -9 23 12 27 33 54 38 37 7 -9 -16 -8 -22 5 -26 8 -3 15
-13 15 -21 0 -10 6 -12 23 -7 20 6 20 4 -7 -25 -17 -17 -26 -32 -20 -32 5 -1
14 -2 19 -4 6 -1 15 -3 22 -3 7 -1 10 -9 7 -17 -8 -21 6 -19 22 3 9 12 16 14
24 6 8 -8 7 -14 -5 -24 -8 -7 -15 -20 -15 -29 0 -11 10 -4 29 19 33 39 52 36
26 -4 -9 -14 -15 -31 -13 -37 2 -7 14 4 27 24 12 20 25 37 28 37 3 0 3 -21 -1
-47 -12 -88 -90 -183 -185 -226 -71 -32 -178 -29 -258 7 -75 34 -163 122 -194
193 -32 72 -37 188 -11 239 28 54 77 98 142 128 64 30 64 30 57 13z m198 3 c3
-5 -1 -10 -10 -10 -9 0 -13 5 -10 10 3 6 8 10 10 10 2 0 7 -4 10 -10z m-173
-22 c-7 -7 -12 -8 -12 -2 0 14 12 26 19 19 2 -3 -1 -11 -7 -17z m218 2 c0 -5
-4 -10 -9 -10 -6 0 -13 5 -16 10 -3 6 1 10 9 10 9 0 16 -4 16 -10z m-120 -19
c0 -12 -29 -35 -36 -28 -11 10 5 37 21 37 8 0 15 -4 15 -9z m170 -1 c13 -8 13
-10 -2 -10 -9 0 -20 5 -23 10 -8 13 5 13 25 0z m-130 -8 c0 -5 -6 -16 -13 -27
-10 -13 -16 -15 -21 -6 -4 6 -2 18 4 26 13 16 30 20 30 7z m60 3 c0 -15 -34
-55 -46 -55 -18 0 -18 5 2 35 14 22 44 35 44 20z m60 -24 c0 -6 -5 -13 -10
-16 -15 -9 -43 3 -35 15 8 13 45 13 45 1z m31 -34 c-16 -16 -26 0 -10 19 9 11
15 12 17 4 2 -6 -1 -17 -7 -23z m49 4 c0 -12 -20 -25 -27 -18 -7 7 6 27 18 27
5 0 9 -4 9 -9z m-115 -11 c3 -5 -3 -10 -14 -10 -12 0 -21 5 -21 10 0 6 6 10
14 10 8 0 18 -4 21 -10z m45 -20 c0 -5 -2 -10 -4 -10 -3 0 -8 5 -11 10 -3 6
-1 10 4 10 6 0 11 -4 11 -10z m40 -9 c0 -13 -29 -35 -37 -28 -7 8 15 37 28 37
5 0 9 -4 9 -9z m40 -10 c0 -12 -20 -25 -27 -18 -7 7 6 27 18 27 5 0 9 -4 9 -9z
m45 -11 c3 -5 -3 -10 -15 -10 -12 0 -18 5 -15 10 3 6 10 10 15 10 5 0 12 -4
15 -10z m-80 -30 c3 -5 -1 -10 -10 -10 -9 0 -13 5 -10 10 3 6 8 10 10 10 2 0
7 -4 10 -10z m65 -9 c0 -6 -5 -13 -10 -16 -15 -9 -43 3 -35 15 8 13 45 13 45
1z m40 -16 c0 -8 -7 -15 -15 -15 -16 0 -20 12 -8 23 11 12 23 8 23 -8z m-82
-32 c-2 -10 -14 -19 -26 -21 -21 -3 -22 -1 -12 17 13 26 43 28 38 4z m48 -22
c-8 -13 -36 -15 -36 -3 0 4 5 13 12 20 14 14 34 0 24 -17z m35 -14 c-16 -16
-26 0 -10 19 9 11 15 12 17 4 2 -6 -1 -17 -7 -23z"/>
<path d="M8755 8617 c-43 -9 -61 -22 -136 -96 -107 -107 -134 -165 -127 -277
8 -127 76 -234 188 -293 107 -57 207 -74 295 -50 95 26 208 151 241 267 20 69
10 140 -33 229 -34 71 -131 171 -197 203 -56 27 -154 34 -231 17z m132 -71 c3
-3 0 -12 -6 -20 -8 -9 -8 -16 -2 -20 6 -4 16 2 23 14 7 11 17 20 22 20 5 0 2
-8 -7 -18 -23 -26 -23 -50 0 -31 14 12 14 10 -1 -13 -23 -35 -4 -37 22 -3 25
31 48 35 32 5 -6 -11 -18 -20 -26 -20 -10 0 -14 -6 -10 -15 3 -10 -1 -15 -13
-15 -14 0 -18 -7 -17 -25 1 -26 10 -32 21 -15 3 6 13 10 22 10 13 0 13 -3 -2
-26 -23 -35 -8 -46 17 -11 11 15 26 27 35 27 12 0 10 -7 -7 -35 -26 -43 -12
-47 18 -5 28 37 49 40 25 3 -17 -26 -17 -27 0 -20 19 7 24 -8 5 -16 -8 -4 -4
-8 10 -13 27 -8 24 -25 -6 -39 -27 -12 -28 -25 -2 -25 24 0 25 -8 5 -34 -30
-39 -13 -40 20 -1 39 45 58 42 24 -4 -34 -47 -16 -48 21 -1 36 46 50 50 50 16
0 -56 -60 -153 -129 -212 -95 -80 -273 -53 -388 58 -84 82 -112 214 -64 307
56 109 175 195 259 187 24 -2 46 -6 49 -10z m108 -26 c3 -5 -1 -10 -10 -10 -9
0 -13 5 -10 10 3 6 8 10 10 10 2 0 7 -4 10 -10z m35 -39 c0 -15 -28 -33 -40
-26 -8 5 -8 11 1 21 13 15 39 19 39 5z m30 -21 c0 -5 -7 -10 -16 -10 -8 0 -12
5 -9 10 3 6 10 10 16 10 5 0 9 -4 9 -10z m-75 -30 c-3 -5 -13 -10 -21 -10 -8
0 -12 5 -9 10 3 6 13 10 21 10 8 0 12 -4 9 -10z m55 -8 c0 -14 -11 -21 -26
-15 -8 3 -11 9 -8 14 7 11 34 12 34 1z m36 -17 c-3 -9 -11 -13 -16 -10 -8 5
-7 11 1 21 14 18 24 11 15 -11z m49 -45 c-3 -5 -10 -10 -16 -10 -5 0 -9 5 -9
10 0 6 7 10 16 10 8 0 12 -4 9 -10z m-25 -29 c0 -12 -20 -25 -27 -18 -7 7 6
27 18 27 5 0 9 -4 9 -9z m30 -16 c-7 -9 -15 -13 -17 -11 -7 7 7 26 19 26 6 0
6 -6 -2 -15z m-36 -40 c-4 -8 -11 -15 -16 -15 -6 0 -5 6 2 15 7 8 14 15 16 15
2 0 1 -7 -2 -15z m46 -4 c0 -12 -20 -25 -27 -18 -7 7 6 27 18 27 5 0 9 -4 9
-9z"/>
<path d="M3635 8469 c-89 -102 -159 -167 -192 -180 -38 -14 -27 -43 32 -88 30
-23 103 -91 163 -151 l107 -108 55 10 c30 5 119 10 197 11 99 1 146 6 155 15
7 7 16 45 20 85 8 87 8 410 -1 452 l-6 29 -80 2 c-44 1 -145 4 -225 8 l-145 7
-80 -92z m295 11 c0 -5 -5 -10 -11 -10 -5 0 -7 5 -4 10 3 6 8 10 11 10 2 0 4
-4 4 -10z m-180 -25 c0 -16 4 -23 14 -19 7 3 16 -2 19 -10 4 -9 11 -16 18 -16
6 0 8 7 5 16 -5 14 -4 15 9 4 13 -11 18 -10 30 6 14 18 14 18 15 -3 0 -28 20
-30 27 -3 7 28 18 25 43 -10 22 -31 46 -41 36 -15 -7 20 1 19 31 -5 18 -14 30
-17 38 -10 8 6 16 5 24 -3 11 -9 14 -9 18 1 3 6 9 12 14 12 5 0 2 -14 -6 -31
-9 -17 -13 -34 -9 -37 4 -4 9 -2 11 4 2 6 11 20 19 30 14 17 15 4 9 -136 -9
-219 2 -200 -119 -200 -55 0 -128 -4 -162 -9 l-60 -9 -126 122 -125 122 106
111 c58 61 109 112 114 112 4 1 7 -10 7 -24z m140 21 c0 -3 -4 -8 -10 -11 -5
-3 -10 -1 -10 4 0 6 5 11 10 11 6 0 10 -2 10 -4z m90 -6 c0 -5 -2 -10 -4 -10
-3 0 -8 5 -11 10 -3 6 -1 10 4 10 6 0 11 -4 11 -10z m112 -12 c-7 -7 -12 -8
-12 -2 0 14 12 26 19 19 2 -3 -1 -11 -7 -17z m-292 2 c0 -5 -4 -10 -10 -10 -5
0 -10 5 -10 10 0 6 5 10 10 10 6 0 10 -4 10 -10z m40 0 c0 -5 -5 -10 -11 -10
-5 0 -7 5 -4 10 3 6 8 10 11 10 2 0 4 -4 4 -10z m117 -26 c-9 -9 -28 6 -21 18
4 6 10 6 17 -1 6 -6 8 -13 4 -17z m53 11 c0 -8 -4 -15 -9 -15 -13 0 -22 16
-14 24 11 11 23 6 23 -9z m57 -27 c-3 -8 -6 -5 -6 6 -1 11 2 17 5 13 3 -3 4
-12 1 -19z m-46 -11 c-10 -9 -11 -8 -5 6 3 10 9 15 12 12 3 -3 0 -11 -7 -18z"/>
<path d="M2975 8530 c-4 -6 -74 -10 -179 -10 -187 0 -284 -12 -304 -38 -10
-13 -11 -64 -6 -228 5 -162 4 -220 -6 -243 -10 -25 -10 -34 1 -47 12 -14 42
-16 265 -12 138 3 257 9 265 13 38 22 238 177 263 203 l29 31 -147 170 c-138
161 -166 186 -181 161z m124 -197 c120 -141 118 -135 49 -184 l-27 -19 9 30
c5 16 5 32 0 35 -4 3 -11 -6 -14 -20 -6 -23 -26 -36 -26 -16 0 5 -9 11 -20 14
-21 5 -28 -7 -10 -18 6 -3 10 -13 10 -22 0 -15 -2 -14 -18 0 -24 22 -50 24
-32 2 13 -16 9 -18 -25 -16 -19 2 -18 0 4 -19 30 -26 15 -26 -28 1 -34 20 -50
15 -51 -16 0 -5 -4 -3 -10 5 -5 8 -12 11 -16 7 -4 -4 -13 -2 -21 5 -7 6 -16 8
-20 4 -4 -3 2 -12 12 -20 13 -9 16 -19 10 -32 -7 -17 -8 -17 -14 6 -5 18 -9
21 -15 12 -6 -11 -12 -10 -27 4 -14 13 -16 21 -8 36 9 17 8 19 -8 16 -10 -2
-18 -8 -19 -13 -3 -35 -34 -62 -34 -30 0 9 -6 12 -15 9 -8 -4 -15 -12 -15 -20
0 -8 -5 -14 -11 -14 -6 0 -9 9 -6 20 5 21 -7 28 -18 10 -5 -8 -11 -7 -20 0
-10 8 -19 8 -34 1 -13 -8 -22 -8 -26 -1 -4 6 -11 7 -17 4 -7 -5 -5 -12 7 -20
17 -13 17 -15 1 -39 -10 -15 -22 -25 -28 -23 -6 2 -12 83 -14 215 l-5 212 33
5 c18 3 44 7 58 9 14 3 98 5 187 6 l162 1 110 -127z m1 -212 c0 -6 -4 -13 -10
-16 -5 -3 -10 1 -10 9 0 9 5 16 10 16 6 0 10 -4 10 -9z m-45 -21 c3 -5 1 -10
-4 -10 -6 0 -11 5 -11 10 0 6 2 10 4 10 3 0 8 -4 11 -10z m-82 -46 c-11 -30
-48 -5 -38 25 6 21 8 21 25 6 10 -9 16 -23 13 -31z m-303 5 c0 -14 -17 -10
-23 5 -4 10 -1 13 9 9 7 -3 14 -9 14 -14z m132 -4 c0 -5 -5 -11 -11 -13 -6 -2
-11 4 -11 13 0 9 5 15 11 13 6 -2 11 -8 11 -13z m-57 -5 c3 -5 1 -10 -4 -10
-6 0 -11 5 -11 10 0 6 2 10 4 10 3 0 8 -4 11 -10z m265 1 c0 -6 -4 -13 -10
-16 -5 -3 -10 1 -10 9 0 9 5 16 10 16 6 0 10 -4 10 -9z m-315 -11 c3 -5 1 -10
-4 -10 -6 0 -11 5 -11 10 0 6 2 10 4 10 3 0 8 -4 11 -10z m-53 -22 c-7 -7 -12
-8 -12 -2 0 14 12 26 19 19 2 -3 -1 -11 -7 -17z"/>
<path d="M3288 8098 c-35 -29 -105 -93 -157 -144 -87 -85 -93 -94 -86 -122 3
-17 -1 -85 -11 -153 -16 -122 -15 -212 3 -230 10 -10 352 -49 431 -49 23 0 51
-5 61 -12 31 -19 51 5 51 61 0 25 9 97 20 160 11 62 20 149 20 193 l0 80 -91
102 c-51 55 -105 116 -121 134 -16 17 -35 32 -43 32 -8 0 -42 -23 -77 -52z
m75 -70 c-12 -13 -14 -21 -6 -26 6 -4 14 -27 18 -52 7 -43 8 -44 18 -20 9 22
11 23 15 6 2 -12 -6 -27 -25 -41 -15 -13 -25 -26 -21 -30 4 -4 24 7 45 24 32
27 39 29 42 14 2 -10 -8 -26 -24 -39 -15 -12 -23 -24 -17 -28 5 -3 15 1 22 9
16 19 30 19 30 0 0 -18 12 -19 28 -3 9 9 12 8 12 -5 0 -9 7 -17 16 -17 9 0 14
-7 12 -17 -3 -12 -12 -17 -26 -16 -16 2 -22 -3 -22 -17 0 -11 6 -20 14 -20 20
0 40 -26 26 -35 -7 -4 -17 -2 -23 4 -17 17 -29 13 -19 -6 5 -10 7 -24 4 -32
-3 -10 0 -12 11 -8 19 7 33 -8 16 -18 -6 -4 -21 2 -33 14 -30 29 -42 26 -22
-4 9 -14 14 -30 11 -35 -3 -6 3 -10 14 -10 19 0 26 -10 22 -32 0 -5 6 -8 15
-8 8 0 12 -5 9 -10 -4 -6 -15 -8 -26 -5 -20 7 -27 -9 -8 -20 6 -4 8 -13 5 -21
-3 -8 1 -14 9 -14 16 0 19 -18 7 -37 -6 -10 -45 -9 -182 3 -96 9 -191 19 -210
23 l-35 7 3 55 c2 30 7 81 13 114 5 33 9 83 9 112 l0 51 122 116 c96 92 124
114 135 104 11 -9 11 -14 -4 -30z m74 -80 c-3 -7 -5 -2 -5 12 0 14 2 19 5 13
2 -7 2 -19 0 -25z m50 -25 c2 -6 -3 -13 -12 -16 -10 -5 -15 0 -15 14 0 21 21
22 27 2z m23 -31 c0 -4 -9 -13 -20 -20 -22 -13 -27 -3 -8 16 14 14 28 16 28 4z
m50 -69 c0 -13 -3 -13 -15 -3 -8 7 -12 16 -9 21 8 13 24 1 24 -18z m0 -62 c0
-28 -17 -35 -29 -13 -11 21 -6 32 16 32 7 0 13 -9 13 -19z m-10 -76 c0 -8 -4
-15 -9 -15 -13 0 -22 16 -14 24 11 11 23 6 23 -9z m-10 -61 c0 -9 -5 -14 -12
-12 -18 6 -21 28 -4 28 9 0 16 -7 16 -16z"/>
<path d="M9452 7872 c-15 -7 -50 -31 -78 -52 -150 -113 -215 -279 -170 -434
23 -78 97 -154 181 -187 50 -19 80 -23 180 -23 105 -1 126 2 170 22 130 60
212 207 203 366 -2 41 -12 87 -22 109 -34 69 -102 134 -184 174 -70 35 -83 38
-165 39 -57 0 -98 -5 -115 -14z m250 -89 c68 -37 125 -89 149 -134 20 -41 13
-51 -17 -21 -10 9 -20 17 -23 17 -3 1 -16 6 -29 13 -12 7 -27 10 -32 7 -6 -3
-10 -1 -10 5 0 6 -4 9 -9 6 -12 -8 -3 -42 23 -86 l20 -35 -21 19 c-12 10 -27
16 -34 14 -7 -2 5 -19 29 -38 42 -34 55 -54 27 -44 -25 10 -17 -12 10 -26 14
-7 25 -18 25 -23 0 -12 -50 19 -73 45 -25 29 -32 16 -12 -23 15 -29 15 -31 1
-26 -15 6 -20 -3 -17 -30 1 -6 -7 -9 -18 -6 -17 4 -19 1 -12 -29 4 -18 13 -43
19 -55 17 -30 15 -35 -7 -21 -11 7 -22 22 -26 35 -3 13 -10 23 -16 23 -6 0 -8
-8 -5 -17 2 -10 7 -28 11 -40 9 -32 -13 -29 -25 2 -5 14 -15 24 -22 23 -7 -2
-14 7 -16 20 -2 12 -7 22 -11 22 -3 0 -5 -32 -3 -72 l4 -71 -75 6 c-167 12
-252 98 -251 253 1 86 36 155 123 237 39 37 81 67 97 70 16 3 45 10 64 14 44
12 100 0 162 -34z m98 -162 c39 -32 35 -53 -4 -27 -26 17 -53 56 -38 56 4 0
23 -13 42 -29z m76 -68 c-4 -4 -11 -1 -16 7 -16 25 -11 35 7 17 9 -9 13 -20 9
-24z m-25 -25 c12 -22 6 -22 -30 -3 -16 8 -31 23 -34 35 -5 20 -5 20 25 3 16
-10 34 -26 39 -35z m-1 -38 c8 -5 12 -12 9 -15 -8 -8 -39 5 -39 16 0 11 11 11
30 -1z m-16 -85 c9 -24 -22 -18 -49 10 -14 13 -25 29 -25 34 0 14 67 -26 74
-44z m26 41 c0 -3 -4 -8 -10 -11 -5 -3 -10 -1 -10 4 0 6 5 11 10 11 6 0 10 -2
10 -4z m-91 -56 c12 -18 13 -22 2 -19 -8 3 -21 16 -30 29 -12 18 -13 22 -2 19
8 -3 21 -16 30 -29z m-34 -38 c-6 -7 -35 18 -35 31 0 5 9 2 20 -8 11 -10 18
-20 15 -23z m85 7 c0 -6 -4 -7 -10 -4 -5 3 -10 11 -10 16 0 6 5 7 10 4 6 -3
10 -11 10 -16z m-24 -37 c-4 -3 -14 2 -24 12 -16 18 -16 18 6 6 13 -6 21 -14
18 -18z m-43 -10 c10 -10 14 -22 10 -25 -12 -12 -20 -8 -31 18 -14 29 -2 33
21 7z m-131 -47 c4 -17 1 -25 -8 -25 -9 0 -14 11 -14 31 0 35 15 31 22 -6z
m90 14 c16 -9 18 -13 7 -20 -14 -8 -39 6 -39 22 0 12 7 11 32 -2z m-42 -31 c0
-13 -23 -5 -28 10 -2 7 2 10 12 6 9 -3 16 -11 16 -16z"/>
<path d="M4730 7790 c-111 -14 -211 -38 -242 -58 -37 -24 -108 -84 -186 -157
-134 -124 -247 -311 -294 -485 -20 -74 -23 -107 -22 -255 1 -155 3 -178 28
-259 118 -388 441 -650 833 -673 230 -14 373 43 617 249 164 137 258 282 313
483 24 87 27 118 28 245 0 122 -4 158 -23 224 -32 110 -81 213 -157 326 -108
164 -246 270 -425 331 -88 29 -107 32 -245 35 -82 1 -184 -1 -225 -6z m435
-70 c156 -49 288 -142 388 -271 31 -42 57 -80 57 -85 0 -6 -11 -21 -25 -34
-37 -35 -30 -47 9 -17 47 37 54 21 9 -25 -20 -21 -34 -41 -30 -44 3 -4 20 8
37 26 21 22 34 30 41 23 7 -7 -9 -28 -48 -66 -32 -31 -54 -59 -50 -63 4 -4 31
16 60 44 29 29 56 49 60 45 4 -4 -20 -35 -55 -70 -34 -34 -59 -66 -55 -70 4
-4 34 19 65 50 58 58 58 58 69 34 10 -22 6 -29 -47 -82 -33 -32 -57 -62 -54
-67 3 -5 30 18 61 49 69 73 84 55 18 -22 -26 -30 -45 -60 -43 -66 2 -6 23 13
47 41 31 37 47 48 54 41 8 -8 -1 -24 -33 -56 -24 -24 -41 -47 -37 -51 3 -3 20
10 37 30 59 67 71 30 14 -40 -46 -56 -38 -69 10 -17 19 21 36 32 36 24 0 -7
-23 -38 -50 -68 -28 -31 -48 -58 -44 -62 3 -3 24 14 47 39 40 45 40 45 12 5
-16 -22 -53 -70 -82 -107 -29 -37 -53 -69 -53 -72 0 -19 24 5 89 89 41 52 76
95 78 95 1 0 3 -8 3 -18 0 -9 -25 -50 -55 -90 -61 -81 -80 -112 -68 -112 4 0
33 34 63 75 34 47 56 69 58 60 2 -9 -15 -40 -38 -70 -23 -30 -40 -59 -38 -66
2 -6 17 8 33 32 23 32 31 38 33 25 2 -11 -12 -34 -34 -57 -21 -21 -34 -42 -30
-46 4 -4 16 3 26 17 14 18 20 20 20 9 0 -8 -13 -25 -30 -37 -36 -27 -40 -49
-5 -26 45 29 19 -9 -31 -47 -46 -34 -46 -54 0 -23 35 22 33 4 -4 -31 -32 -30
-42 -57 -13 -34 11 9 6 -5 -13 -40 -62 -114 -292 -327 -433 -399 -269 -140
-643 -71 -888 162 -190 180 -283 395 -283 656 0 326 164 621 455 819 89 60 90
60 215 76 157 21 376 14 465 -15z"/>
<path d="M4721 7475 c-105 -23 -163 -46 -217 -86 -140 -103 -214 -257 -214
-446 0 -293 218 -585 477 -638 109 -22 212 -27 300 -16 172 22 235 75 334 280
85 175 99 220 99 310 -1 225 -124 449 -301 545 -112 62 -324 84 -478 51z m311
-46 c89 -19 174 -64 239 -126 80 -76 84 -84 59 -125 -22 -36 -25 -48 -11 -48
5 0 14 14 21 30 7 17 16 30 21 30 5 0 -2 -23 -16 -51 -15 -28 -24 -56 -22 -62
2 -7 14 8 26 31 12 24 25 42 27 39 3 -3 -9 -33 -26 -67 -17 -34 -29 -67 -27
-73 2 -7 19 17 37 53 48 93 51 50 4 -50 -20 -44 -35 -83 -31 -86 3 -3 24 29
46 72 28 55 40 72 41 55 0 -13 -18 -57 -41 -97 -22 -41 -39 -80 -37 -86 2 -6
24 24 48 68 35 63 45 74 48 56 2 -14 -18 -62 -53 -123 -31 -56 -54 -104 -51
-107 8 -7 6 -9 65 93 41 72 51 85 51 62 0 -30 -31 -96 -79 -167 -17 -24 -28
-46 -25 -49 7 -8 30 20 68 83 24 40 36 53 36 39 0 -28 -52 -125 -101 -191 -22
-29 -39 -58 -36 -65 2 -6 18 8 35 32 18 24 32 41 32 37 0 -17 -64 -131 -93
-164 -18 -20 -37 -46 -43 -57 -14 -27 -87 -62 -153 -75 -128 -24 -312 -2 -419
51 -119 58 -250 217 -304 369 -32 90 -33 277 -1 362 64 171 187 271 378 307
72 13 225 13 287 0z"/>
<path d="M4804 7306 c-131 -42 -248 -190 -273 -343 -27 -171 61 -348 208 -420
49 -24 68 -28 146 -28 77 0 98 4 147 27 71 33 137 93 170 155 32 57 68 183 68
233 0 80 -96 254 -172 312 -91 69 -204 94 -294 64z m146 -46 c12 -8 9 -10 -12
-10 -16 0 -28 -4 -28 -10 0 -5 7 -10 15 -10 13 0 14 -4 5 -20 -6 -11 -17 -20
-26 -20 -12 0 -13 -4 -3 -21 7 -15 14 -18 21 -11 17 17 39 2 33 -22 -6 -20 -5
-20 14 3 13 14 21 18 21 10 -1 -33 -16 -40 -71 -34 -39 5 -50 4 -39 -4 8 -6
27 -11 41 -11 32 0 42 -9 27 -27 -6 -7 -8 -17 -4 -21 4 -4 15 3 24 15 13 16
24 20 50 16 23 -4 32 -10 28 -19 -7 -17 6 -18 23 -1 11 9 10 7 0 -10 -15 -26
-21 -27 -66 -14 -19 6 -35 6 -38 1 -3 -5 11 -12 30 -16 33 -6 36 -9 30 -33
l-7 -26 26 24 26 24 0 -23 c0 -23 0 -23 21 -4 22 19 22 19 15 -8 -5 -24 -3
-28 19 -34 45 -11 28 -27 -22 -20 -56 7 -48 -5 17 -27 34 -12 41 -17 28 -22
-10 -4 -25 -5 -33 -1 -8 3 -15 1 -15 -5 0 -12 43 -29 75 -29 13 0 26 -4 29 -8
11 -18 -68 -154 -112 -192 -209 -184 -515 -29 -515 261 -1 67 4 86 35 150 42
89 109 161 181 194 54 26 130 33 157 15z m34 -39 c10 -16 -5 -41 -25 -41 -22
0 -23 4 -7 30 14 22 24 25 32 11z m36 -36 c-20 -24 -31 -18 -18 10 8 17 15 22
21 16 7 -7 6 -15 -3 -26z m49 -11 c-11 -13 -39 -20 -39 -9 0 3 5 14 12 25 9
14 15 16 25 8 10 -8 10 -14 2 -24z m15 -48 c-17 -35 -34 -48 -34 -25 0 14 41
72 47 66 2 -3 -4 -21 -13 -41z m-34 17 c-1 -14 -27 -43 -39 -43 -15 0 -14 23
1 38 13 13 38 16 38 5z m64 -29 c-9 -13 -19 -23 -21 -21 -7 8 20 56 28 51 5
-3 1 -16 -7 -30z m26 -24 c-6 -11 -15 -18 -21 -14 -6 4 -6 11 2 20 17 21 31
17 19 -6z m24 -25 c-6 -16 -24 -21 -24 -7 0 11 11 22 21 22 5 0 6 -7 3 -15z
m-58 -21 c-3 -9 -6 -18 -6 -20 0 -2 -7 -4 -15 -4 -13 0 -13 3 -3 20 15 24 33
27 24 4z m29 -24 c-3 -5 -11 -10 -16 -10 -6 0 -7 5 -4 10 3 6 11 10 16 10 6 0
7 -4 4 -10z m65 -20 c0 -5 -4 -10 -10 -10 -5 0 -10 5 -10 10 0 6 5 10 10 10 6
0 10 -4 10 -10z m-69 -33 c-10 -9 -11 -8 -5 6 3 10 9 15 12 12 3 -3 0 -11 -7
-18z m46 -4 c-9 -9 -19 -14 -23 -11 -10 10 6 28 24 28 15 0 15 -1 -1 -17z m43
-13 c0 -5 -7 -10 -16 -10 -8 0 -12 5 -9 10 3 6 10 10 16 10 5 0 9 -4 9 -10z
m-27 -26 c11 -11 -3 -24 -18 -18 -8 4 -12 10 -9 15 6 11 18 12 27 3z m27 -53
c0 -6 -5 -13 -10 -16 -15 -9 -43 3 -35 15 8 13 45 13 45 1z"/>
<path d="M7905 7780 c-169 -23 -338 -97 -472 -205 -46 -37 -83 -70 -83 -75 0
-4 -21 -38 -46 -75 -64 -94 -128 -233 -155 -340 -33 -128 -33 -351 0 -475 31
-117 86 -230 160 -327 219 -291 583 -447 865 -374 38 10 77 16 87 14 22 -6
157 61 253 124 195 130 397 384 452 568 35 118 16 393 -37 527 -25 65 -69 128
-139 203 -31 33 -82 95 -113 137 -96 131 -246 226 -431 273 -104 26 -254 37
-341 25z m238 -55 c108 -19 161 -36 263 -86 100 -49 180 -120 290 -257 l83
-105 -19 -25 c-27 -33 -16 -42 15 -12 34 31 32 13 -2 -22 -35 -36 -21 -50 15
-15 44 42 49 32 7 -14 -43 -48 -39 -65 7 -23 25 23 23 18 -10 -21 -53 -64 -43
-74 13 -12 60 65 64 59 8 -13 -25 -33 -43 -63 -39 -67 3 -4 14 4 23 17 10 14
29 38 44 55 l27 30 13 -28 c11 -25 10 -30 -13 -55 -34 -36 -62 -82 -51 -82 5
0 22 18 39 40 16 22 33 40 38 40 5 0 2 -8 -5 -19 -8 -10 -36 -49 -63 -85 -26
-37 -45 -70 -41 -74 3 -4 12 0 18 10 72 101 101 137 109 132 4 -3 -10 -28 -32
-56 -50 -64 -52 -88 -2 -30 21 23 41 42 45 42 9 0 9 -27 -1 -32 -14 -6 -82
-105 -75 -111 3 -4 23 16 43 44 21 28 40 44 42 37 3 -7 -7 -25 -21 -41 -36
-40 -65 -87 -54 -87 5 0 24 18 42 41 57 71 46 33 -13 -46 -55 -73 -74 -105
-63 -105 3 0 27 28 53 63 64 85 64 84 64 57 0 -16 -23 -51 -61 -95 -79 -92
-103 -125 -90 -125 6 0 39 34 73 75 41 49 64 70 66 60 2 -8 -14 -37 -35 -63
-58 -69 -86 -112 -79 -119 3 -4 8 -4 9 -2 2 2 23 30 47 62 23 32 44 56 46 54
10 -10 -23 -77 -56 -112 -50 -54 -82 -103 -78 -117 2 -6 14 4 26 23 12 20 31
44 43 55 l22 19 -23 -44 c-12 -24 -52 -73 -88 -107 -49 -47 -63 -66 -54 -72
15 -10 -101 -124 -197 -195 -76 -56 -215 -129 -234 -122 -7 3 -49 -6 -93 -21
-71 -24 -90 -26 -184 -22 -195 9 -368 90 -542 257 -142 135 -216 256 -264 431
-28 99 -25 347 4 455 48 175 186 395 300 478 194 143 425 200 645 162z"/>
<path d="M7935 7513 c-105 -22 -240 -106 -332 -206 -210 -230 -270 -534 -152
-768 188 -376 698 -495 1040 -243 104 76 190 200 236 339 22 68 26 99 27 207
1 71 4 128 7 128 11 0 110 131 107 142 -2 6 -28 -20 -58 -57 l-54 -68 -27 82
c-69 209 -251 374 -475 431 -73 19 -258 26 -319 13z m301 -58 c86 -22 211 -87
274 -143 l54 -49 -22 -28 c-28 -35 -20 -46 12 -16 37 35 41 8 6 -40 -16 -23
-30 -46 -30 -51 0 -18 16 -5 40 32 13 22 28 40 33 40 4 0 -13 -29 -39 -65 -25
-36 -44 -69 -40 -72 3 -4 8 -4 9 -2 2 2 23 30 46 62 66 90 59 60 -8 -41 -34
-50 -61 -94 -61 -97 0 -20 24 7 70 80 34 53 58 81 64 75 6 -6 -12 -42 -48 -95
-31 -48 -55 -92 -53 -98 2 -7 28 25 58 70 30 46 57 83 60 83 13 0 16 -39 4
-44 -18 -7 -108 -153 -103 -168 2 -6 26 25 53 70 27 45 55 82 62 82 20 0 16
-9 -46 -105 -33 -49 -57 -94 -54 -99 3 -5 31 31 62 80 45 71 57 84 59 66 2
-14 -21 -63 -64 -132 -37 -61 -64 -113 -61 -116 3 -4 22 20 43 52 20 33 49 79
65 104 l29 45 0 -32 c0 -20 -17 -59 -49 -110 -62 -101 -92 -159 -84 -167 3 -3
33 43 67 102 53 93 61 103 64 79 3 -21 -10 -48 -45 -100 -66 -96 -106 -167
-99 -174 7 -8 2 -14 58 77 26 41 54 84 62 95 14 18 14 16 2 -27 -8 -26 -39
-84 -70 -128 -65 -93 -82 -131 -36 -80 l32 35 -23 -35 c-45 -68 -142 -150
-224 -191 -188 -93 -395 -90 -595 9 -98 48 -224 169 -269 259 -119 237 -57
526 158 741 104 103 205 162 311 181 68 12 187 6 266 -14z"/>
<path d="M7940 7307 c-30 -7 -69 -20 -86 -29 -48 -26 -103 -94 -143 -177 -35
-73 -36 -80 -36 -186 0 -98 3 -116 27 -167 54 -117 175 -209 292 -223 67 -9
156 9 220 44 57 30 133 104 158 153 38 72 61 134 59 156 -1 12 3 22 9 22 7 0
8 6 0 19 -5 11 -10 35 -10 54 0 49 -25 125 -60 180 -73 116 -277 189 -430 154z
m156 -48 c64 -12 84 -23 68 -39 -7 -7 -26 -6 -57 4 -26 8 -49 11 -52 6 -2 -4
16 -13 40 -20 25 -7 45 -16 45 -20 0 -10 -31 -36 -55 -45 -13 -5 -16 -9 -7
-12 10 -4 10 -8 1 -19 -7 -8 -9 -18 -5 -22 4 -4 16 3 26 16 16 19 25 22 55 16
34 -6 35 -8 20 -24 -9 -10 -12 -21 -7 -24 6 -3 17 5 26 19 9 14 21 25 26 25
15 0 12 -26 -5 -40 -8 -7 -12 -17 -9 -22 3 -5 19 5 34 24 36 42 45 34 14 -14
-22 -34 -26 -36 -64 -31 -26 4 -40 2 -40 -6 0 -6 18 -11 43 -11 61 0 73 -11
42 -40 -33 -31 -32 -41 6 -33 30 6 31 5 19 -16 -6 -12 -18 -25 -26 -28 -19 -7
-8 -23 17 -23 12 0 19 -5 16 -12 -2 -8 -17 -12 -33 -10 l-29 2 25 -20 c14 -11
33 -20 43 -20 23 0 22 -13 -3 -35 -25 -22 -26 -35 -2 -35 10 0 26 -6 36 -13
16 -12 13 -17 -38 -65 -75 -71 -131 -95 -226 -96 -63 -1 -84 3 -131 27 -177
87 -241 290 -151 481 49 104 104 153 199 175 53 13 71 13 139 0z m128 -44 c25
-19 16 -28 -18 -19 -26 6 -32 15 -19 27 9 10 15 8 37 -8z m-10 -45 c15 -15 -5
-30 -40 -30 -37 0 -39 2 -23 31 10 20 41 19 63 -1z m50 -25 c-6 -16 -34 -21
-34 -7 0 13 11 22 26 22 8 0 11 -6 8 -15z m46 -4 c0 -12 -20 -25 -27 -18 -7 7
6 27 18 27 5 0 9 -4 9 -9z m20 -48 c0 -10 -52 -63 -62 -63 -14 0 -9 16 13 44
19 24 49 36 49 19z m28 -35 c-2 -15 -11 -24 -26 -26 -23 -4 -23 -3 -7 22 21
32 37 34 33 4z m-38 -55 c0 -12 -33 -43 -47 -43 -16 0 -17 22 -1 38 13 13 48
17 48 5z m60 -6 c0 -22 -37 -50 -56 -43 -15 6 -14 9 6 31 26 27 50 33 50 12z
m-72 -83 c-15 -15 -31 -23 -38 -19 -16 10 17 45 44 45 19 0 19 -1 -6 -26z m72
-9 c0 -21 -5 -25 -30 -25 -34 0 -37 6 -13 32 23 26 43 23 43 -7z m-47 -50 c-1
-5 -8 -14 -17 -20 -18 -11 -42 7 -31 25 8 13 51 9 48 -5z m31 -29 c-6 -16 -24
-23 -24 -8 0 10 22 33 27 28 2 -2 1 -11 -3 -20z m-14 -32 c0 -11 -21 -44 -28
-44 -4 0 -13 4 -21 9 -12 8 -12 12 -2 25 13 15 51 23 51 10z"/>
<path d="M5195 4064 c-473 -363 -918 -793 -1294 -1249 -62 -75 -81 -106 -79
-125 2 -16 10 -26 23 -27 15 -2 44 27 107 105 151 187 339 390 569 617 242
239 415 391 663 585 87 68 160 130 163 137 6 15 -14 43 -31 42 -6 0 -60 -38
-121 -85z"/>
<path d="M6800 3879 c-413 -329 -764 -644 -1159 -1040 -133 -134 -249 -253
-257 -265 -18 -26 -8 -54 18 -54 12 0 121 102 291 273 425 428 792 756 1221
1093 112 88 141 115 141 135 0 53 -36 33 -255 -142z"/>
<path d="M6190 3814 c-365 -307 -639 -555 -993 -900 -209 -203 -224 -223 -186
-247 14 -9 59 30 260 225 369 356 649 609 989 892 121 101 165 143 165 159 0
16 -7 23 -25 24 -19 2 -67 -32 -210 -153z"/>
<path d="M4065 3848 c-300 -217 -689 -543 -1025 -859 -161 -152 -445 -443
-463 -475 -12 -21 -1 -44 21 -44 12 0 133 113 308 288 405 404 795 742 1172
1016 44 32 53 43 50 65 -4 33 -25 36 -63 9z"/>
<path d="M4694 3131 c-418 -402 -760 -740 -762 -750 -2 -12 5 -24 18 -31 19
-10 33 1 143 107 67 65 411 397 765 737 499 481 642 624 640 640 -9 61 -27 45
-804 -703z"/>
<path d="M7185 3658 c-151 -126 -396 -340 -540 -473 -337 -310 -855 -833 -855
-865 0 -9 7 -24 16 -31 14 -12 44 16 249 226 346 357 743 727 1133 1057 148
126 173 158 136 172 -25 10 -24 10 -139 -86z"/>
<path d="M7590 3683 c-383 -306 -799 -701 -1155 -1098 -126 -141 -137 -157
-129 -179 15 -39 49 -16 164 116 151 174 607 631 790 793 80 70 216 187 303
259 121 100 157 135 155 151 -6 39 -41 28 -128 -42z"/>
<path d="M5024 3671 c-226 -165 -1101 -1013 -1092 -1059 2 -8 11 -20 20 -26
15 -9 52 24 256 234 252 258 486 480 740 700 83 73 152 138 152 146 0 7 -8 18
-19 23 -15 8 -27 4 -57 -18z"/>
<path d="M8665 3599 c-347 -281 -680 -618 -908 -921 -54 -72 -65 -93 -56 -104
24 -30 48 -13 137 100 253 319 537 603 896 894 60 49 77 68 74 85 -6 42 -40
29 -143 -54z"/>
<path d="M5625 3554 c-269 -205 -635 -505 -758 -621 -51 -48 -57 -76 -19 -81
17 -3 42 13 90 56 142 126 461 387 662 542 171 131 210 166 208 184 -6 43 -41
28 -183 -80z"/>
<path d="M4243 3568 c-355 -269 -719 -595 -1013 -908 -99 -106 -131 -146 -128
-163 7 -52 37 -29 269 207 245 250 402 396 626 583 214 178 354 281 388 285
53 5 43 78 -10 78 -14 0 -69 -34 -132 -82z"/>
<path d="M10090 3563 c-146 -117 -279 -234 -407 -359 -92 -91 -119 -111 -125
-99 -5 8 -16 15 -24 15 -24 0 -634 -472 -634 -491 0 -22 26 -43 42 -33 12 7
434 329 528 403 48 38 46 35 -51 -79 -35 -41 -95 -115 -133 -164 -56 -70 -67
-92 -59 -105 22 -35 42 -22 142 102 128 160 279 324 419 459 116 110 315 281
390 333 41 29 60 63 47 84 -13 23 -43 8 -135 -66z"/>
<path d="M2960 3494 c-85 -70 -211 -176 -280 -237 -347 -305 -825 -780 -818
-814 2 -9 10 -20 19 -26 12 -8 68 43 290 265 298 299 486 472 792 726 155 129
197 170 195 186 -7 46 -42 28 -198 -100z"/>
<path d="M6015 3463 c-258 -217 -459 -406 -748 -701 -128 -131 -142 -153 -106
-175 14 -9 58 31 255 230 243 244 475 458 679 625 62 51 116 99 119 107 8 17
-11 41 -33 41 -9 0 -84 -57 -166 -127z"/>
<path d="M3920 3423 c-339 -268 -897 -740 -1105 -935 -51 -48 -58 -59 -49 -75
20 -32 41 -25 106 35 106 98 392 348 588 513 158 133 610 499 667 540 11 8 23
20 27 27 10 16 -11 42 -33 42 -9 0 -99 -66 -201 -147z"/>
<path d="M8205 3513 c-214 -174 -437 -382 -617 -578 -102 -111 -128 -145 -126
-165 5 -42 33 -34 89 27 231 249 518 523 693 659 76 59 95 94 60 108 -24 9
-25 9 -99 -51z"/>
<path d="M4334 3434 c-260 -190 -541 -433 -767 -662 -116 -117 -127 -132 -117
-151 6 -12 18 -21 28 -21 9 0 76 59 147 131 245 248 494 463 768 663 84 62
107 84 105 100 -6 42 -42 29 -164 -60z"/>
<path d="M2480 3429 c-220 -171 -450 -388 -450 -425 0 -51 31 -33 178 103 81
75 209 186 285 246 107 86 137 115 135 131 -6 41 -41 28 -148 -55z"/>
<path d="M7479 3427 c-208 -160 -410 -345 -565 -518 -132 -146 -157 -180 -148
-202 13 -35 48 -18 99 46 130 162 467 479 703 659 34 27 62 54 62 61 0 16 -20
37 -34 36 -6 0 -59 -37 -117 -82z"/>
<path d="M6525 3384 c-313 -261 -612 -548 -873 -838 -162 -180 -175 -197 -166
-220 14 -36 48 -17 120 67 270 314 716 745 1032 997 59 47 81 71 79 85 -1 13
-11 21 -27 23 -19 2 -57 -24 -165 -114z"/>
<path d="M8924 3424 c-264 -189 -463 -361 -739 -638 -132 -133 -246 -253 -254
-268 -11 -22 -12 -30 -1 -43 7 -8 18 -15 25 -15 6 0 70 64 141 141 237 260
552 541 840 749 105 76 118 89 108 114 -11 27 -39 18 -120 -40z"/>
<path d="M10555 3408 c-192 -140 -419 -347 -543 -496 -55 -67 -65 -100 -32
-109 12 -3 20 -14 20 -27 0 -30 18 -46 53 -46 55 0 98 32 212 159 116 130 271
284 410 408 69 62 78 74 69 90 -6 10 -17 19 -25 21 -29 5 -348 -290 -472 -438
-130 -154 -149 -170 -197 -170 l-42 0 33 43 c68 87 338 345 453 432 176 134
183 140 170 162 -18 29 -35 25 -109 -29z"/>
<path d="M10769 3323 c-153 -157 -236 -247 -353 -383 -76 -89 -96 -119 -94
-139 6 -53 34 -33 159 111 68 79 200 220 292 315 138 141 168 175 162 192 -14
44 -47 24 -166 -96z"/>
<path d="M11117 3344 c-48 -36 -106 -87 -129 -114 -40 -47 -42 -48 -53 -27
-14 30 -49 33 -85 7 -37 -26 -340 -347 -340 -359 0 -11 28 -41 39 -41 3 0 78
75 166 168 105 110 167 168 183 170 23 3 22 1 -16 -55 -54 -80 -63 -99 -56
-117 3 -9 16 -16 28 -16 17 0 34 18 69 74 61 95 158 200 252 271 75 56 85 71
63 93 -19 19 -29 15 -121 -54z"/>
<path d="M7489 3181 c-252 -256 -519 -550 -519 -572 0 -22 24 -41 41 -33 8 3
66 65 129 136 63 72 224 242 358 378 133 136 242 254 242 262 0 16 -19 38 -34
38 -6 0 -104 -94 -217 -209z"/>
<path d="M9140 3348 c-173 -131 -434 -384 -428 -414 1 -9 11 -22 20 -28 15 -9
33 5 120 95 109 112 227 218 321 288 57 43 68 66 45 89 -17 17 -16 17 -78 -30z"/>
<path d="M1579 3274 c-46 -42 -148 -130 -227 -196 -145 -122 -165 -150 -111
-156 20 -2 58 24 180 126 85 72 186 159 224 195 60 56 68 68 59 84 -6 10 -18
19 -26 21 -8 2 -53 -32 -99 -74z"/>
<path d="M6920 3234 c-176 -142 -371 -309 -505 -434 -101 -94 -117 -122 -84
-143 14 -9 44 14 165 125 175 159 324 287 487 417 102 81 118 97 115 120 -2
14 -10 27 -18 29 -8 1 -80 -50 -160 -114z"/>
<path d="M8054 3154 c-110 -103 -271 -258 -359 -344 -88 -86 -188 -175 -222
-198 -65 -44 -74 -60 -47 -83 13 -11 21 -10 50 6 56 30 160 120 339 295 94 91
241 232 328 314 119 113 157 155 155 170 -2 13 -12 22 -24 24 -16 2 -72 -45
-220 -184z"/>
<path d="M9324 3243 c-223 -181 -604 -583 -604 -639 0 -18 17 -34 35 -34 2 0
51 56 110 125 138 162 337 360 492 488 67 56 123 109 123 118 0 15 -18 39 -30
39 -3 0 -60 -44 -126 -97z"/>
<path d="M10106 3319 c-158 -84 -475 -386 -657 -625 -72 -94 -80 -124 -34
-124 18 0 43 26 106 107 145 188 373 408 562 543 31 23 61 39 66 36 19 -12 61
13 61 37 0 50 -41 60 -104 26z"/>
<path d="M1850 3192 c-302 -253 -455 -395 -455 -422 0 -50 37 -36 126 46 108
100 339 298 457 394 69 55 92 80 90 95 -2 13 -12 21 -28 22 -19 2 -63 -29
-190 -135z"/>
<path d="M3029 3219 c-262 -212 -669 -564 -669 -578 0 -21 28 -43 46 -37 41
13 115 67 124 90 9 25 251 237 510 447 118 95 150 127 148 143 -6 44 -42 29
-159 -65z"/>
<path d="M11235 3272 c-33 -23 -195 -232 -285 -366 -41 -61 -51 -83 -43 -95
22 -35 47 -17 120 89 40 58 113 156 163 218 49 62 90 118 90 125 0 13 -19 37
-29 37 -4 0 -11 -4 -16 -8z"/>
<path d="M11319 3243 c-9 -10 -35 -46 -59 -80 -45 -66 -47 -93 -7 -93 33 0
136 144 120 169 -15 23 -37 25 -54 4z"/>
<path d="M1161 3120 c-45 -50 -81 -94 -81 -99 0 -20 31 -41 47 -33 23 13 163
173 163 186 0 16 -21 36 -36 36 -7 0 -49 -41 -93 -90z"/>
<path d="M2019 3192 c-62 -41 -520 -475 -517 -489 2 -9 11 -21 20 -27 14 -8
23 -5 45 15 366 335 513 472 513 479 0 7 -28 40 -33 40 -1 0 -14 -8 -28 -18z"/>
<path d="M1440 3030 c-125 -120 -143 -142 -134 -157 6 -10 18 -19 26 -21 15
-3 292 247 302 273 3 8 3 22 0 30 -14 36 -52 11 -194 -125z"/>
<path d="M11409 3123 c-18 -27 -47 -64 -66 -84 -41 -43 -41 -72 -1 -77 21 -3
34 6 65 43 57 68 84 124 72 147 -16 29 -36 21 -70 -29z"/>
<path d="M2315 3049 c-61 -60 -210 -205 -333 -322 -165 -157 -222 -217 -220
-232 2 -14 11 -20 30 -20 22 0 90 60 352 313 244 235 326 319 326 337 0 20
-16 35 -38 35 -4 0 -57 -50 -117 -111z"/>
<path d="M8389 2825 c-249 -262 -277 -300 -218 -300 21 0 73 50 268 254 247
259 270 291 215 299 -16 2 -77 -56 -265 -253z"/>
</g>
</svg>
